<?xml version="1.0" encoding="UTF-8" standalone="no"?> <!-- Created with Vectornator for iOS (http://vectornator.io/) --><!DOCTYPE svg PUBLIC "-//W3C//DTD SVG 1.1//EN" "http://www.w3.org/Graphics/SVG/1.1/DTD/svg11.dtd">
<svg height="100%" style="fill-rule:nonzero;clip-rule:evenodd;stroke-linecap:round;stroke-linejoin:round;" version="1.1" viewBox="0 0 1366 350" width="100%" xml:space="preserve" xmlns="http://www.w3.org/2000/svg" xmlns:vectornator="http://vectornator.io" xmlns:xlink="http://www.w3.org/1999/xlink">
<metadata>
<vectornator:setting key="IsTimeLapseWatermarkDisabled" value="false"/>
<vectornator:setting key="UndoHistoryDisabled" value="true"/>
<vectornator:setting key="VNDimensionsVisible" value="true"/>
<vectornator:setting key="VNSnapToGuides" value="true"/>
<vectornator:setting key="WDCMYKEnabledKey" value="false"/>
<vectornator:setting key="WDDisplayWhiteBackground" value="false"/>
<vectornator:setting key="WDDynamicGuides" value="true"/>
<vectornator:setting key="WDGuidesVisible" value="true"/>
<vectornator:setting key="WDIsolateActiveLayer" value="false"/>
<vectornator:setting key="WDOutlineMode" value="false"/>
<vectornator:setting key="WDRulersVisible" value="true"/>
<vectornator:setting key="WDSnapToEdges" value="false"/>
<vectornator:setting key="WDSnapToGrid" value="false"/>
<vectornator:setting key="WDSnapToPoints" value="false"/>
<vectornator:setting key="WDUnits" value="Points"/>
</metadata>
<defs/>
<g id="Layer 1" vectornator:layerName="Layer 1">
<path d="M0 0L1366 0L1366 350L0 350L0 0Z" fill="#29002a" opacity="1"/>
<path d="M0 0L5.32517 0L10.6503 0L15.9755 0L21.3007 0L26.6259 0L31.951 0L37.2762 0L42.6014 0L47.9266 0L53.2517 0L58.5769 0L63.9021 0L69.2273 0L74.5524 0L79.8776 0L85.2028 0L90.5279 0L95.8531 0L101.178 0L106.503 0L111.829 0L117.154 0L122.479 0L127.804 0L133.129 0L138.455 0L143.78 0L149.105 0L154.43 0L159.755 0L165.08 0L170.406 0L175.731 0L181.056 0L186.381 0L191.706 0L197.031 0L202.357 0L207.682 0L213.007 0L218.332 0L223.657 0L228.982 0L234.308 0L239.633 0L244.958 0L250.283 0L255.608 0L260.933 0L266.259 0L271.584 0L276.909 0L282.234 0L287.559 0L292.885 0L298.21 0L303.535 0L308.86 0L314.185 0L319.51 0L324.836 0L330.161 0L335.486 0L340.811 0L346.136 0L351.461 0L356.787 0L362.112 0L367.437 0L372.762 0L378.087 0L383.412 0L388.738 0L394.063 0L399.388 0L404.713 0L410.038 0L415.364 0L420.689 0L426.014 0L431.339 0L436.664 0L441.989 0L447.315 0L452.64 0L457.965 0L463.29 0L468.615 0L473.94 0L479.266 0L484.591 0L489.916 0L495.241 0L500.566 0L505.891 0L511.217 0L516.542 0L521.867 0L527.192 0L532.517 0L537.842 0L543.168 0L548.493 0L553.818 0L559.143 0L564.468 0L569.794 0L575.119 0L580.444 0L585.769 0L591.094 0L596.419 0L601.745 0L607.07 0L612.395 0L617.72 0L623.045 0L628.37 0L633.696 0L639.021 0L644.346 0L649.671 0L654.996 0L660.321 0L665.647 0L670.972 0L676.297 0L681.622 0L683.264 0L684.906 0L686.547 0L688.189 0L689.831 0L691.473 0L693.114 0L694.756 0L695.785 0L696.814 0L697.844 0L698.873 0L699.902 0L700.931 0L701.96 0L702.989 0L703.827 0L704.664 0L705.502 0L706.339 0L707.177 0L708.014 0L708.852 0L709.689 0L710.461 0L711.233 0L712.004 0L712.776 0L713.547 0L714.319 0L715.09 0L715.862 0L716.415 2.4305L716.968 4.861L717.52 7.2915L718.073 9.722L718.755 11.2702L719.436 12.8184L720.467 15.6386L721.498 18.4588L722.51 22.0099L723.826 25.2746L725.139 28.6194L726.758 31.6779L727.761 34.7877L728.763 37.8976L729.766 41.0075L730.568 44.4672L731.652 48.6561L732.536 53.1948L733.419 57.7335L734.062 62.1489L734.571 66.8623L734.838 71.4524L734.57 75.9426L734.301 80.4328L733.936 84.0697L733.571 87.7067L732.669 91.2437L731.768 94.7808L730.38 98.0128L728.991 101.245L726.874 103.76L724.573 106.038L721.432 108.194L718.05 109.988L714.056 111.315L710.003 112.517L705.464 113.414L700.924 114.311L696.384 115.208L691.844 116.105L687.12 116.322L682.533 116.251L677.932 115.49L673.47 114.441L668.898 113.311L664.327 112.18L659.443 110.441L654.56 108.703L650.533 107.009L646.506 105.315L642.168 103.013L637.829 100.71L633.788 98.6694L629.747 96.6284L625.707 94.5874L621.666 92.5464L616.991 91.0841L612.527 90.0164L608.009 89.5146L603.704 89.4075L599.268 90.0927L594.832 90.778L590.531 92.0914L586.636 93.3798L583.15 95.6776L580.072 97.9503L577.127 100.851L574.183 103.752L571.645 107.492L569.107 111.232L566.57 114.973L564.332 118.823L562.268 123.537L560.504 128.36L558.741 133.184L557.428 137.968L555.841 143.177L554.704 148.346L553.568 153.515L552.432 158.684L551.299 164.317L550.165 169.951L548.812 175.479L547.458 181.007L545.657 186.231L543.856 191.454L541.834 196.572L539.746 201.065L537.269 206.015L534.726 210.341L531.919 214.413L529.111 218.485L525.944 222.548L522.777 226.612L519.345 230.422L515.913 234.232L511.298 237.157L505.442 238.427L500.203 239.097L494.706 238.765L489.347 238.013L484.152 236.954L478.729 235.451L473.534 234.024L467.818 232.356L462.234 230.367L456.65 228.378L451.066 226.388L445.481 224.399L439.897 222.409L434.313 220.42L428.729 218.431L424.599 216.954L420.469 215.477L416.34 214L412.417 213.006L408.316 212.168L404.421 211.813L400.527 211.458L396.633 211.103L393.14 211.08L389.647 211.058L386.155 211.035L382.924 211.523L379.405 212.112L376.147 213.211L373.513 214.638L371.242 216.522L368.87 219.171L366.862 222.277L365.477 225.711L364.091 229.145L363.447 232.839L362.802 236.533L362.158 240.227L361.855 244.092L362.158 248.244L362.802 252.567L363.447 256.89L364.091 261.213L365.477 265.797L366.862 270.38L368.247 274.964L369.633 279.547L370.787 283.525L371.14 287.692L370.766 292.309L369.591 297.114L367.346 301.035L364.887 304.918L361.826 308.6L358.55 312.245L354.694 315.434L350.837 318.623L346.981 321.811L343.125 325L339.268 328.189L335.412 331.377L331.556 334.566L327.821 337.134L324.013 339.286L320.327 340.816L316.641 342.347L312.955 343.877L309.268 345.408L305.582 346.939L301.896 348.469L298.21 350L292.885 350L287.559 350L282.234 350L276.909 350L271.584 350L266.259 350L260.933 350L255.608 350L250.283 350L244.958 350L239.633 350L234.308 350L228.982 350L223.657 350L218.332 350L213.007 350L207.682 350L202.357 350L197.031 350L191.706 350L186.381 350L181.056 350L175.731 350L170.406 350L165.08 350L159.755 350L154.43 350L149.105 350L143.78 350L138.455 350L133.129 350L127.804 350L122.479 350L117.154 350L111.829 350L106.503 350L101.178 350L95.8531 350L90.5279 350L85.2028 350L79.8776 350L74.5524 350L69.2273 350L63.9021 350L58.5769 350L53.2517 350L47.9266 350L42.6014 350L37.2762 350L31.951 350L26.6259 350L21.3007 350L15.9755 350L10.6503 350L5.32517 350L0 350L0 347.266L0 344.531L0 341.797L0 339.062L0 336.328L0 333.594L0 330.859L0 328.125L0 325.391L0 322.656L0 319.922L0 317.188L0 314.453L0 311.719L0 308.984L0 306.25L0 303.516L0 300.781L0 298.047L0 295.312L0 292.578L0 289.844L0 287.109L0 284.375L0 281.641L0 278.906L0 276.172L0 273.438L0 270.703L0 267.969L0 265.234L0 262.5L0 259.766L0 257.031L0 254.297L0 251.562L0 248.828L0 246.094L0 243.359L0 240.625L0 237.891L0 235.156L0 232.422L0 229.688L0 226.953L0 224.219L0 221.484L0 218.75L0 216.016L0 213.281L0 210.547L0 207.812L0 205.078L0 202.344L0 199.609L0 196.875L0 194.141L0 191.406L0 188.672L0 185.938L0 183.203L0 180.469L0 177.734L0 175L0 172.266L0 169.531L0 166.797L0 164.062L0 161.328L0 158.594L0 155.859L0 153.125L0 150.391L0 147.656L0 144.922L0 142.188L0 139.453L0 136.719L0 133.984L0 131.25L0 128.516L0 125.781L0 123.047L0 120.312L0 117.578L0 114.844L0 112.109L0 109.375L0 106.641L0 103.906L0 101.172L0 98.4375L0 95.7031L0 92.9688L0 90.2344L0 87.5L0 84.7656L0 82.0312L0 79.2969L0 76.5625L0 73.8281L0 71.0938L0 68.3594L0 65.625L0 62.8906L0 60.1562L0 57.4219L0 54.6875L0 51.9531L0 49.2188L0 46.4844L0 43.75L0 41.0156L0 38.2812L0 35.5469L0 32.8125L0 30.0781L0 27.3438L0 24.6094L0 21.875L0 19.1406L0 16.4062L0 13.6719L0 10.9375L0 8.20312L0 5.46875L0 2.73438L0 0Z" fill="#0d0224" opacity="1"/>
<g opacity="1">
<path d="M390.157 174.319C390.157 147.914 374.998 130.984 353.66 130.984C332.363 130.984 317.204 147.955 317.204 174.319C317.204 200.682 332.322 217.653 353.66 217.653C374.998 217.653 390.157 200.723 390.157 174.319ZM382.66 174.319C382.701 197.016 370.302 210.403 353.66 210.403C336.977 210.403 324.66 196.933 324.66 174.319C324.66 151.58 337.101 138.234 353.66 138.234C370.302 138.234 382.66 151.621 382.66 174.319Z" fill="#ffffff" opacity="1"/>
<path d="M447.457 192.32C447.457 203.936 438.724 210.198 430.156 210.198C421.011 210.198 414.585 203.648 414.585 193.762L414.585 153.228L407.253 153.228L407.253 194.215C407.253 209.209 415.903 217.324 428.055 217.324C437.323 217.324 443.914 212.504 446.88 205.996L447.457 205.996L447.457 216.5L454.789 216.5L454.789 153.228L447.457 153.228L447.457 192.32Z" fill="#ffffff" opacity="1"/>
<path d="M474.15 216.5L481.483 216.5L481.483 175.637C481.483 166.245 488.691 159.448 498.578 159.448C500.514 159.448 502.326 159.778 502.985 159.86L502.985 152.404C501.997 152.363 500.308 152.281 499.113 152.281C491.163 152.281 484.366 156.565 481.812 162.949L481.277 162.949L481.277 153.228L474.15 153.228L474.15 216.5Z" fill="#ffffff" opacity="1"/>
<path d="M549.658 132.137L549.658 216.5L556.907 216.5L556.907 148.408L557.567 148.408L586.031 216.5L593.033 216.5L621.498 148.408L622.157 148.408L622.157 216.5L629.407 216.5L629.407 132.137L620.509 132.137L589.903 205.625L589.161 205.625L558.555 132.137L549.658 132.137Z" fill="#ffffff" opacity="1"/>
<path d="M675.873 217.818C688.561 217.818 697.087 210.939 699.971 202.989L693.009 200.723C690.579 206.408 684.853 211.104 675.873 211.104C662.939 211.104 654.741 201.671 654.412 187.047L701.536 187.047L701.536 183.422C701.536 162.29 688.478 152.363 674.761 152.363C658.366 152.363 647.038 166.08 647.038 185.235C647.038 204.431 658.16 217.818 675.873 217.818ZM654.453 180.58C655.236 168.799 663.186 159.036 674.761 159.036C686.089 159.036 694.039 168.387 694.039 180.58L654.453 180.58Z" fill="#ffffff" opacity="1"/>
<path d="M717.643 216.5L724.976 216.5L724.976 175.966C724.976 166.121 731.525 159.119 740.299 159.119C748.95 159.119 753.975 164.886 753.975 173.454L753.975 216.5L761.472 216.5L761.472 174.854C761.472 165.751 766.91 159.119 776.549 159.119C784.911 159.119 790.472 164.144 790.472 174.113L790.472 216.5L797.804 216.5L797.804 174.113C797.804 159.942 790.513 152.404 778.773 152.404C769.546 152.404 762.873 156.894 760.031 163.897L759.495 163.897C756.694 156.729 751.133 152.404 742.4 152.404C734.12 152.404 727.942 156.4 725.429 162.949L724.77 162.949L724.77 153.228L717.643 153.228L717.643 216.5Z" fill="#ffffff" opacity="1"/>
<path d="M818.69 216.5L825.817 216.5L825.817 204.76L826.723 204.76C829.277 210.568 834.632 217.818 846.166 217.818C861.695 217.818 872.2 204.678 872.2 185.029C872.2 165.545 861.654 152.363 846.042 152.363C834.467 152.363 829.236 159.613 826.723 165.297L826.064 165.297L826.064 132.137L818.69 132.137L818.69 216.5ZM825.94 184.905C825.94 169.746 832.902 159.036 845.26 159.036C857.947 159.036 864.826 170.323 864.826 184.905C864.826 199.652 857.864 211.104 845.26 211.104C832.984 211.104 825.94 200.188 825.94 184.905Z" fill="#ffffff" opacity="1"/>
<path d="M913.887 217.818C926.575 217.818 935.102 210.939 937.985 202.989L931.024 200.723C928.593 206.408 922.867 211.104 913.887 211.104C900.953 211.104 892.756 201.671 892.426 187.047L939.55 187.047L939.55 183.422C939.55 162.29 926.492 152.363 912.775 152.363C896.38 152.363 885.052 166.08 885.052 185.235C885.052 204.431 896.175 217.818 913.887 217.818ZM892.467 180.58C893.25 168.799 901.2 159.036 912.775 159.036C924.103 159.036 932.053 168.387 932.053 180.58L892.467 180.58Z" fill="#ffffff" opacity="1"/>
<path d="M955.658 216.5L962.99 216.5L962.99 175.637C962.99 166.245 970.199 159.448 980.085 159.448C982.021 159.448 983.833 159.778 984.492 159.86L984.492 152.404C983.504 152.363 981.815 152.281 980.62 152.281C972.67 152.281 965.873 156.565 963.319 162.949L962.784 162.949L962.784 153.228L955.658 153.228L955.658 216.5Z" fill="#ffffff" opacity="1"/>
<path d="M1039.53 167.11C1036.44 157.965 1029.68 152.363 1018.11 152.363C1005.34 152.363 996.068 159.654 996.068 170.076C996.068 178.562 1001.22 184.328 1012.22 186.965L1022.55 189.436C1029.52 191.084 1032.85 194.668 1032.85 199.735C1032.85 206.325 1026.55 211.227 1016.83 211.227C1008.18 211.227 1002.78 207.314 1001.01 199.817L993.967 201.547C996.192 212.092 1004.55 217.818 1016.95 217.818C1030.88 217.818 1040.43 210.156 1040.43 199.405C1040.43 190.961 1035.12 185.317 1024.53 182.722L1014.98 180.374C1007.11 178.397 1003.44 175.225 1003.44 169.746C1003.44 163.32 1009.58 158.83 1018.11 158.83C1026.63 158.83 1030.83 163.32 1032.81 169.005L1039.53 167.11Z" fill="#ffffff" opacity="1"/>
</g>
</g>
</svg>
