<?xml version="1.0" encoding="UTF-8" standalone="no"?> <!-- Created with Vectornator for iOS (http://vectornator.io/) --><!DOCTYPE svg PUBLIC "-//W3C//DTD SVG 1.1//EN" "http://www.w3.org/Graphics/SVG/1.1/DTD/svg11.dtd">
<svg height="100%" style="fill-rule:nonzero;clip-rule:evenodd;stroke-linecap:round;stroke-linejoin:round;" xmlns:xlink="http://www.w3.org/1999/xlink" xmlns="http://www.w3.org/2000/svg" xml:space="preserve" width="100%" xmlns:vectornator="http://vectornator.io" version="1.1" viewBox="0 0 1500 500">
<metadata>
<vectornator:setting key="DynamicGuides" value="1"/>
<vectornator:setting key="SnapToGrid" value="0"/>
<vectornator:setting key="OutlineMode" value="0"/>
<vectornator:setting key="DimensionsVisible" value="1"/>
<vectornator:setting key="Units" value="Points"/>
<vectornator:setting key="IsolateActiveLayer" value="0"/>
<vectornator:setting key="SnapToGuides" value="1"/>
<vectornator:setting key="SnapToPoints" value="0"/>
<vectornator:setting key="SnapToEdges" value="0"/>
<vectornator:setting key="DisplayWhiteBackground" value="0"/>
<vectornator:setting key="doHistoryDisabled" value="0"/>
<vectornator:setting key="TimeLapseWatermarkDisabled" value="0"/>
<vectornator:setting key="GuidesVisible" value="1"/>
<vectornator:setting key="RulersVisible" value="1"/>
<vectornator:setting key="CMYKEnabledKey" value="0"/>
<vectornator:setting key="PencilOnly" value="0"/>
</metadata>
<defs>
<linearGradient y1="461.37" id="LinearGradient" x1="951.274" y2="457.867" x2="1099.03" gradientUnits="userSpaceOnUse" gradientTransform="matrix(3.77103 0 0 1.73751 -2833.83 -575.92)">
<stop stop-color="#ffa469" offset="0"/>
<stop stop-color="#ff8f8f" offset="0.951681"/>
</linearGradient>
<linearGradient y1="372.762" id="LinearGradient_2" x1="41.3668" y2="371.315" x2="456.448" gradientUnits="userSpaceOnUse" gradientTransform="matrix(1.25094 0 0 0.696862 -1.68007 -0.903011)">
<stop stop-color="#8900ff" offset="0.367647"/>
<stop stop-color="#2a18ff" offset="1"/>
</linearGradient>
<linearGradient y1="352.883" id="LinearGradient_3" x1="145.544" y2="352.883" x2="401.544" gradientUnits="userSpaceOnUse" gradientTransform="matrix(1 0 0 1 14.2146 -111.99)">
<stop stop-color="#ff8a3f" offset="0"/>
<stop stop-color="#ff6767" offset="0.970588"/>
</linearGradient>
</defs>
<g id="Background" vectornator:layerName="Background">
<path fill-rule="evenodd" vectornator:shadowColor="#000000" vectornator:shadowOpacity="0.141964" vectornator:shadowRadius="9.65504" d="M262.567+1.3128e-05L1499.88+1.3128e-05L1499.88+500L262.567+500L262.567+1.3128e-05Z" vectornator:shadowOffset="25.6783" fill="url(#LinearGradient)" opacity="1" vectornator:shadowAngle="2.17322"/>
</g>
<g id="Icon Background" vectornator:layerName="Icon Background">
<path d="M857.686+500.758C845.628+502.115+824.448+486.697+812.773+444.46C801.097+402.224+828.131+346.573+822.313+329.442C814.883+307.565+772.099+268.262+727.316+249.753C682.533+231.244+647.593+215.995+636.546+197.533C619.214+168.567+645.294+121.563+659.276+83.391C673.258+45.2194+644.781+21.328+616.109+0.0951441L307.215-0.403933L-1.68007-0.903011L-1.68007+249.967L-1.68007+500.838L426.33+500.815L854.34+500.792" fill-rule="evenodd" fill="url(#LinearGradient_2)" opacity="1"/>
</g>
<g id="Sample Icon" vectornator:layerName="Sample Icon">
<path fill-rule="evenodd" vectornator:shadowColor="#000000" vectornator:shadowOpacity="0.141964" vectornator:shadowRadius="9.65504" d="M231.303+112.893L344.214+112.893C383.727+112.893+415.759+144.924+415.759+184.437L415.759+297.348C415.759+336.861+383.727+368.893+344.214+368.893L231.303+368.893C191.79+368.893+159.759+336.861+159.759+297.348L159.759+184.437C159.759+144.924+191.79+112.893+231.303+112.893Z" vectornator:shadowOffset="25.6783" fill="url(#LinearGradient_3)" opacity="1" vectornator:shadowAngle="2.17322"/>
<g opacity="1">
<path fill-rule="evenodd" vectornator:shadowColor="#000000" vectornator:shadowOpacity="0.141964" vectornator:shadowRadius="8.20155" d="M216.755+223.151L225.17+223.151L225.17+171.968L216.755+171.968L216.755+223.151ZM216.755+162.761L225.17+162.761L225.17+152.465L216.755+152.465L216.755+162.761ZM190.421+179.393L190.421+223.151L198.836+223.151L198.836+179.393L208.736+179.393L208.736+171.968L198.836+171.968L198.836+164.84C198.836+162.596+199.397+161.078+200.519+160.286C201.641+159.494+203.225+159.098+205.271+159.098C205.997+159.098+206.789+159.147+207.647+159.246C208.505+159.346+209.297+159.527+210.023+159.791L210.023+152.465C209.231+152.201+208.324+152.003+207.301+151.871C206.278+151.739+205.37+151.673+204.578+151.673C199.958+151.673+196.444+152.745+194.035+154.89C191.626+157.036+190.421+160.187+190.421+164.345L190.421+171.968L181.808+171.968L181.808+179.393L190.421+179.393Z" vectornator:shadowOffset="8.52713" fill="#ffffff" opacity="1" vectornator:shadowAngle="2.17322"/>
<path fill-rule="evenodd" vectornator:shadowColor="#000000" vectornator:shadowOpacity="0.141964" vectornator:shadowRadius="8.20155" d="M238.113+171.968L238.113+223.151L246.528+223.151L246.528+200.381C246.528+197.081+246.858+194.161+247.518+191.619C248.178+189.078+249.234+186.917+250.686+185.135C252.138+183.353+254.052+182+256.428+181.076C258.804+180.152+261.675+179.69+265.041+179.69L265.041+170.78C260.487+170.648+256.725+171.572+253.755+173.552C250.785+175.532+248.277+178.601+246.231+182.759L246.033+182.759L246.033+171.968L238.113+171.968Z" vectornator:shadowOffset="8.52713" fill="#ffffff" opacity="1" vectornator:shadowAngle="2.17322"/>
<path fill-rule="evenodd" vectornator:shadowColor="#000000" vectornator:shadowOpacity="0.141964" vectornator:shadowRadius="8.20155" d="M276.696+207.014L268.281+207.014C268.413+210.182+269.073+212.871+270.261+215.082C271.449+217.294+273.033+219.075+275.013+220.428C276.993+221.782+279.27+222.755+281.844+223.349C284.418+223.943+287.124+224.24+289.962+224.24C292.536+224.24+295.127+223.993+297.734+223.497C300.341+223.002+302.684+222.128+304.763+220.874C306.842+219.62+308.525+217.97+309.812+215.924C311.099+213.878+311.742+211.304+311.742+208.202C311.742+205.76+311.264+203.714+310.307+202.064C309.35+200.414+308.096+199.045+306.545+197.955C304.994+196.866+303.212+195.992+301.199+195.332C299.186+194.672+297.123+194.111+295.011+193.649C293.031+193.187+291.051+192.742+289.071+192.313C287.091+191.883+285.309+191.356+283.725+190.728C282.141+190.101+280.838+189.31+279.815+188.352C278.792+187.395+278.28+186.191+278.28+184.739C278.28+183.419+278.61+182.347+279.27+181.521C279.93+180.696+280.788+180.037+281.844+179.541C282.9+179.046+284.072+178.7+285.359+178.502C286.646+178.304+287.916+178.205+289.17+178.205C290.556+178.205+291.926+178.353+293.279+178.65C294.632+178.948+295.869+179.426+296.991+180.086C298.113+180.746+299.037+181.62+299.763+182.709C300.489+183.799+300.918+185.168+301.05+186.818L309.465+186.818C309.267+183.716+308.607+181.126+307.485+179.046C306.363+176.967+304.862+175.318+302.981+174.097C301.1+172.875+298.938+172.018+296.496+171.522C294.054+171.027+291.381+170.78+288.477+170.78C286.233+170.78+283.973+171.06+281.696+171.621C279.419+172.183+277.373+173.04+275.558+174.195C273.743+175.351+272.258+176.852+271.103+178.7C269.948+180.548+269.37+182.759+269.37+185.333C269.37+188.633+270.195+191.207+271.845+193.055C273.495+194.903+275.558+196.338+278.033+197.361C280.508+198.385+283.197+199.176+286.101+199.737C289.005+200.299+291.695+200.925+294.17+201.618C296.645+202.312+298.707+203.219+300.357+204.341C302.007+205.463+302.832+207.113+302.832+209.291C302.832+210.875+302.436+212.178+301.644+213.201C300.852+214.225+299.846+215+298.625+215.528C297.404+216.056+296.067+216.419+294.615+216.617C293.163+216.815+291.777+216.914+290.457+216.914C288.741+216.914+287.075+216.749+285.458+216.419C283.841+216.089+282.389+215.545+281.102+214.785C279.815+214.026+278.775+213.004+277.983+211.717C277.191+210.429+276.762+208.862+276.696+207.014Z" vectornator:shadowOffset="8.52713" fill="#ffffff" opacity="1" vectornator:shadowAngle="2.17322"/>
<path fill-rule="evenodd" vectornator:shadowColor="#000000" vectornator:shadowOpacity="0.141964" vectornator:shadowRadius="8.20155" d="M332.902+171.968L332.902+156.623L324.487+156.623L324.487+171.968L315.775+171.968L315.775+179.393L324.487+179.393L324.487+211.964C324.487+214.34+324.718+216.254+325.18+217.706C325.642+219.158+326.351+220.28+327.308+221.072C328.265+221.864+329.519+222.408+331.07+222.705C332.621+223.003+334.486+223.151+336.664+223.151L343.099+223.151L343.099+215.726L339.238+215.726C337.918+215.726+336.845+215.677+336.02+215.577C335.195+215.478+334.552+215.264+334.09+214.934C333.628+214.604+333.314+214.142+333.149+213.548C332.984+212.954+332.902+212.162+332.902+211.172L332.902+179.393L343.099+179.393L343.099+171.968L332.902+171.968Z" vectornator:shadowOffset="8.52713" fill="#ffffff" opacity="1" vectornator:shadowAngle="2.17322"/>
</g>
<g opacity="1">
<path fill-rule="evenodd" vectornator:shadowColor="#000000" vectornator:shadowOpacity="0.141964" vectornator:shadowRadius="8.20155" d="M198.638+254.944L198.638+239.599L190.223+239.599L190.223+254.944L181.511+254.944L181.511+262.369L190.223+262.369L190.223+294.94C190.223+297.316+190.454+299.23+190.916+300.682C191.378+302.134+192.088+303.256+193.045+304.048C194.002+304.84+195.256+305.385+196.807+305.682C198.358+305.979+200.222+306.127+202.4+306.127L208.835+306.127L208.835+298.702L204.974+298.702C203.654+298.702+202.582+298.653+201.757+298.554C200.932+298.455+200.288+298.24+199.826+297.91C199.364+297.58+199.051+297.118+198.886+296.524C198.721+295.93+198.638+295.138+198.638+294.148L198.638+262.369L208.835+262.369L208.835+254.944L198.638+254.944Z" vectornator:shadowOffset="8.52713" fill="#ffffff" opacity="1" vectornator:shadowAngle="2.17322"/>
<path fill-rule="evenodd" vectornator:shadowColor="#000000" vectornator:shadowOpacity="0.141964" vectornator:shadowRadius="8.20155" d="M218.313+235.441L218.313+306.127L226.728+306.127L226.728+277.219C226.728+274.909+227.041+272.781+227.668+270.834C228.295+268.887+229.236+267.187+230.49+265.735C231.744+264.283+233.311+263.161+235.192+262.369C237.073+261.577+239.301+261.181+241.875+261.181C245.109+261.181+247.65+262.105+249.498+263.953C251.346+265.801+252.27+268.309+252.27+271.477L252.27+306.127L260.685+306.127L260.685+272.467C260.685+269.695+260.404+267.171+259.843+264.894C259.282+262.617+258.309+260.653+256.923+259.003C255.537+257.353+253.722+256.066+251.478+255.142C249.234+254.218+246.429+253.756+243.063+253.756C241.545+253.756+239.977+253.921+238.36+254.251C236.743+254.581+235.192+255.093+233.707+255.786C232.222+256.479+230.886+257.37+229.698+258.459C228.51+259.548+227.586+260.884+226.926+262.468L226.728+262.468L226.728+235.441L218.313+235.441Z" vectornator:shadowOffset="8.52713" fill="#ffffff" opacity="1" vectornator:shadowAngle="2.17322"/>
<path fill-rule="evenodd" vectornator:shadowColor="#000000" vectornator:shadowOpacity="0.141964" vectornator:shadowRadius="8.20155" d="M282.438+245.737L282.438+235.441L274.023+235.441L274.023+245.737L282.438+245.737ZM274.023+254.944L274.023+306.127L282.438+306.127L282.438+254.944L274.023+254.944Z" vectornator:shadowOffset="8.52713" fill="#ffffff" opacity="1" vectornator:shadowAngle="2.17322"/>
<path fill-rule="evenodd" vectornator:shadowColor="#000000" vectornator:shadowOpacity="0.141964" vectornator:shadowRadius="8.20155" d="M295.678+254.944L295.678+306.127L304.093+306.127L304.093+277.219C304.093+274.909+304.406+272.781+305.033+270.834C305.66+268.887+306.601+267.187+307.855+265.735C309.109+264.283+310.676+263.161+312.557+262.369C314.438+261.577+316.666+261.181+319.24+261.181C322.474+261.181+325.015+262.105+326.863+263.953C328.711+265.801+329.635+268.309+329.635+271.477L329.635+306.127L338.05+306.127L338.05+272.467C338.05+269.695+337.769+267.171+337.208+264.894C336.647+262.617+335.674+260.653+334.288+259.003C332.902+257.353+331.087+256.066+328.843+255.142C326.599+254.218+323.794+253.756+320.428+253.756C312.838+253.756+307.294+256.858+303.796+263.062L303.598+263.062L303.598+254.944L295.678+254.944Z" vectornator:shadowOffset="8.52713" fill="#ffffff" opacity="1" vectornator:shadowAngle="2.17322"/>
<path fill-rule="evenodd" vectornator:shadowColor="#000000" vectornator:shadowOpacity="0.141964" vectornator:shadowRadius="8.20155" d="M395.047+301.771L395.047+254.944L387.127+254.944L387.127+262.27L387.028+262.27C385.51+259.432+383.398+257.304+380.692+255.885C377.986+254.466+375.016+253.756+371.782+253.756C367.36+253.756+363.631+254.598+360.595+256.281C357.559+257.964+355.117+260.109+353.269+262.716C351.421+265.323+350.101+268.227+349.309+271.428C348.517+274.629+348.121+277.747+348.121+280.783C348.121+284.281+348.6+287.598+349.557+290.733C350.514+293.868+351.949+296.607+353.863+298.95C355.777+301.293+358.153+303.157+360.991+304.543C363.829+305.929+367.162+306.622+370.99+306.622C374.29+306.622+377.409+305.88+380.346+304.395C383.283+302.91+385.477+300.583+386.929+297.415L387.127+297.415L387.127+300.781C387.127+303.619+386.847+306.226+386.286+308.602C385.725+310.978+384.817+313.008+383.563+314.691C382.309+316.374+380.725+317.694+378.811+318.651C376.897+319.608+374.554+320.086+371.782+320.086C370.396+320.086+368.944+319.938+367.426+319.641C365.908+319.344+364.506+318.865+363.219+318.205C361.932+317.545+360.843+316.687+359.952+315.631C359.061+314.575+358.582+313.288+358.516+311.77L350.101+311.77C350.233+314.542+350.959+316.885+352.279+318.799C353.599+320.713+355.266+322.264+357.279+323.452C359.292+324.64+361.536+325.498+364.011+326.026C366.486+326.554+368.911+326.818+371.287+326.818C379.471+326.818+385.477+324.739+389.305+320.581C393.133+316.423+395.047+310.153+395.047+301.771ZM371.485+299.296C368.713+299.296+366.403+298.719+364.555+297.564C362.707+296.409+361.222+294.891+360.1+293.01C358.978+291.129+358.186+289.033+357.724+286.723C357.262+284.413+357.031+282.103+357.031+279.793C357.031+277.351+357.312+275.008+357.873+272.764C358.434+270.52+359.325+268.54+360.546+266.824C361.767+265.108+363.334+263.739+365.248+262.716C367.162+261.693+369.472+261.181+372.178+261.181C374.818+261.181+377.062+261.709+378.91+262.765C380.758+263.821+382.26+265.224+383.415+266.973C384.57+268.722+385.411+270.685+385.939+272.863C386.467+275.041+386.731+277.252+386.731+279.496C386.731+281.872+386.451+284.248+385.89+286.624C385.329+289+384.454+291.129+383.266+293.01C382.078+294.891+380.511+296.409+378.564+297.564C376.617+298.719+374.257+299.296+371.485+299.296Z" vectornator:shadowOffset="8.52713" fill="#ffffff" opacity="1" vectornator:shadowAngle="2.17322"/>
</g>
<path d="M584.323+333.869C584.323+331.107+586.561+328.869+589.323+328.869C592.084+328.869+594.322+331.107+594.322+333.869C594.322+336.63+592.084+338.869+589.323+338.869C586.561+338.869+584.323+336.63+584.323+333.869Z" fill-rule="evenodd" fill="#ffffff" opacity="1"/>
<path d="M711.154+465.883C711.154+463.121+713.392+460.883+716.154+460.883C718.915+460.883+721.153+463.121+721.153+465.883C721.153+468.644+718.915+470.883+716.154+470.883C713.392+470.883+711.154+468.644+711.154+465.883Z" fill-rule="evenodd" fill="#ffffff" opacity="1"/>
<path d="M691.155+393.12C691.155+390.358+693.393+388.12+696.155+388.12C698.916+388.12+701.154+390.358+701.154+393.12C701.154+395.88+698.916+398.12+696.155+398.12C693.393+398.12+691.155+395.88+691.155+393.12Z" fill-rule="evenodd" fill="#ffffff" opacity="1"/>
<path d="M90.7848+421.205C90.7848+418.443+93.0229+416.205+95.7848+416.205C98.5458+416.205+100.784+418.443+100.784+421.205C100.784+423.966+98.5458+426.205+95.7848+426.205C93.0229+426.205+90.7848+423.966+90.7848+421.205Z" fill-rule="evenodd" fill="#ffffff" opacity="1"/>
<path d="M524.32+170.493C524.32+167.731+526.559+165.493+529.32+165.493C532.081+165.493+534.32+167.731+534.32+170.493C534.32+173.254+532.081+175.493+529.32+175.493C526.559+175.493+524.32+173.254+524.32+170.493Z" fill-rule="evenodd" fill="#ffffff" opacity="1"/>
<path d="M509.322+32.8071C509.322+30.0451+511.56+27.8071+514.322+27.8071C517.083+27.8071+519.321+30.0451+519.321+32.8071C519.321+35.5681+517.083+37.8071+514.322+37.8071C511.56+37.8071+509.322+35.5681+509.322+32.8071Z" fill-rule="evenodd" fill="#ffffff" opacity="1"/>
<g opacity="1">
<path d="M41.7126+40.5083L47.6032+40.5083L58.3181+58.4341L69.0329+40.5083L74.9489+40.5083L60.8571+62.7758L60.8571+77.8071L55.8044+77.8071L55.8044+62.7758L41.7126+40.5083Z" opacity="1" fill="#ffffff"/>
<path d="M89.4724+74.8618C92.5023+74.8618+94.5801+73.715+95.7057+71.4214C96.8314+69.1277+97.3942+66.576+97.3942+63.7661C97.3942+61.227+96.988+59.1619+96.1755+57.5708C94.889+55.0656+92.6716+53.813+89.5231+53.813C86.7302+53.813+84.6989+54.8794+83.4294+57.0122C82.1599+59.145+81.5251+61.7179+81.5251+64.7309C81.5251+67.6255+82.1599+70.0376+83.4294+71.9673C84.6989+73.8969+86.7132+74.8618+89.4724+74.8618ZM89.6501+49.8266C93.154+49.8266+96.1162+50.9946+98.5368+53.3305C100.957+55.6665+102.168+59.1027+102.168+63.6391C102.168+68.0232+101.101+71.6456+98.9684+74.5063C96.8356+77.367+93.5264+78.7973+89.0407+78.7973C85.2998+78.7973+82.3291+77.532+80.1286+75.0014C77.9281+72.4708+76.8278+69.0727+76.8278+64.8071C76.8278+60.2368+77.9873+56.5975+80.3063+53.8891C82.6253+51.1808+85.7399+49.8266+89.6501+49.8266Z" opacity="1" fill="#ffffff"/>
<path d="M112.172+50.6137L112.172+68.6665C112.172+70.0545+112.392+71.1886+112.832+72.0688C113.644+73.6938+115.159+74.5063+117.377+74.5063C120.559+74.5063+122.726+73.0844+123.877+70.2407C124.503+68.7173+124.816+66.6268+124.816+63.9692L124.816+50.6137L129.386+50.6137L129.386+77.8071L125.07+77.8071L125.121+73.7954C124.528+74.8279+123.792+75.6997+122.912+76.4106C121.168+77.8325+119.052+78.5434+116.564+78.5434C112.688+78.5434+110.047+77.2485+108.642+74.6587C107.881+73.2706+107.5+71.4171+107.5+69.0981L107.5+50.6137L112.172+50.6137Z" opacity="1" fill="#ffffff"/>
<path d="M136.648+50.6137L140.99+50.6137L140.99+55.311C141.345+54.3969+142.217+53.284+143.605+51.9721C144.993+50.6603+146.593+50.0044+148.404+50.0044C148.489+50.0044+148.633+50.0128+148.836+50.0298C149.039+50.0467+149.386+50.0805+149.877+50.1313L149.877+54.9555C149.606+54.9048+149.356+54.8709+149.128+54.854C148.899+54.837+148.649+54.8286+148.379+54.8286C146.077+54.8286+144.308+55.5691+143.072+57.0503C141.836+58.5314+141.218+60.2368+141.218+62.1665L141.218+77.8071L136.648+77.8071L136.648+50.6137Z" opacity="1" fill="#ffffff"/>
<path d="M171.789+70.5708C171.789+71.8911+172.271+72.9321+173.236+73.6938C174.201+74.4555+175.343+74.8364+176.664+74.8364C178.272+74.8364+179.829+74.464+181.336+73.7192C183.875+72.4835+185.144+70.4607+185.144+67.6508L185.144+63.9692C184.586+64.3247+183.866+64.6209+182.986+64.8579C182.106+65.0949+181.243+65.2641+180.396+65.3657L177.629+65.7212C175.97+65.9412+174.726+66.2882+173.896+66.7622C172.491+67.5577+171.789+68.8273+171.789+70.5708ZM182.859+61.3286C183.909+61.1932+184.611+60.7531+184.966+60.0083C185.17+59.602+185.271+59.018+185.271+58.2563C185.271+56.699+184.717+55.5691+183.608+54.8667C182.499+54.1642+180.912+53.813+178.847+53.813C176.461+53.813+174.768+54.4562+173.769+55.7426C173.211+56.4536+172.847+57.5115+172.677+58.9165L168.412+58.9165C168.496+55.5649+169.584+53.2332+171.674+51.9214C173.765+50.6095+176.19+49.9536+178.949+49.9536C182.148+49.9536+184.746+50.563+186.744+51.7817C188.724+53.0005+189.715+54.8963+189.715+57.4692L189.715+73.1352C189.715+73.6092+189.812+73.99+190.007+74.2778C190.201+74.5656+190.612+74.7094+191.238+74.7094C191.441+74.7094+191.67+74.6967+191.924+74.6714C192.177+74.646+192.448+74.6079+192.736+74.5571L192.736+77.9341C192.025+78.1372+191.483+78.2641+191.111+78.3149C190.739+78.3657+190.231+78.3911+189.588+78.3911C188.013+78.3911+186.871+77.8325+186.16+76.7153C185.787+76.1229+185.525+75.285+185.373+74.2016C184.442+75.4204+183.105+76.4783+181.361+77.3755C179.618+78.2726+177.696+78.7212+175.597+78.7212C173.075+78.7212+171.014+77.9552+169.415+76.4233C167.815+74.8914+167.015+72.9744+167.015+70.6723C167.015+68.1502+167.802+66.1951+169.377+64.8071C170.951+63.4191+173.016+62.5643+175.572+62.2426L182.859+61.3286Z" opacity="1" fill="#ffffff"/>
<path d="M208.681+74.7348C210.814+74.7348+212.587+73.8419+214.001+72.0561C215.414+70.2703+216.121+67.6001+216.121+64.0454C216.121+61.8787+215.808+60.0167+215.181+58.4594C213.996+55.4633+211.83+53.9653+208.681+53.9653C205.516+53.9653+203.349+55.548+202.181+58.7133C201.555+60.4061+201.242+62.5558+201.242+65.1626C201.242+67.2615+201.555+69.0473+202.181+70.52C203.366+73.3299+205.533+74.7348+208.681+74.7348ZM196.849+50.7407L201.293+50.7407L201.293+54.3462C202.207+53.1105+203.205+52.1541+204.289+51.477C205.829+50.4614+207.64+49.9536+209.722+49.9536C212.803+49.9536+215.418+51.1342+217.568+53.4956C219.718+55.8569+220.793+59.2296+220.793+63.6137C220.793+69.5382+219.244+73.77+216.146+76.3091C214.183+77.9171+211.897+78.7212+209.291+78.7212C207.243+78.7212+205.524+78.2726+204.136+77.3755C203.324+76.8676+202.418+75.9959+201.42+74.7602L201.42+88.6489L196.849+88.6489L196.849+50.7407Z" opacity="1" fill="#ffffff"/>
<path d="M237.601+74.7348C239.734+74.7348+241.507+73.8419+242.921+72.0561C244.334+70.2703+245.041+67.6001+245.041+64.0454C245.041+61.8787+244.728+60.0167+244.101+58.4594C242.916+55.4633+240.75+53.9653+237.601+53.9653C234.436+53.9653+232.269+55.548+231.101+58.7133C230.475+60.4061+230.162+62.5558+230.162+65.1626C230.162+67.2615+230.475+69.0473+231.101+70.52C232.286+73.3299+234.453+74.7348+237.601+74.7348ZM225.769+50.7407L230.213+50.7407L230.213+54.3462C231.127+53.1105+232.125+52.1541+233.209+51.477C234.749+50.4614+236.56+49.9536+238.642+49.9536C241.723+49.9536+244.338+51.1342+246.488+53.4956C248.638+55.8569+249.713+59.2296+249.713+63.6137C249.713+69.5382+248.164+73.77+245.066+76.3091C243.103+77.9171+240.817+78.7212+238.211+78.7212C236.162+78.7212+234.444+78.2726+233.056+77.3755C232.244+76.8676+231.338+75.9959+230.34+74.7602L230.34+88.6489L225.769+88.6489L225.769+50.7407Z" opacity="1" fill="#ffffff"/>
<path d="M256.009+51.3501C256.94+51.1977+257.647+50.673+258.13+49.7758C258.612+48.8787+258.853+47.8462+258.853+46.6782C258.853+46.5597+258.849+46.4539+258.841+46.3608C258.832+46.2677+258.811+46.1619+258.777+46.0434L256.009+46.0434L256.009+40.5083L261.443+40.5083L261.443+45.6118C261.443+47.7785+260.994+49.6193+260.097+51.1342C259.2+52.6492+257.838+53.5167+256.009+53.7368L256.009+51.3501Z" opacity="1" fill="#ffffff"/>
<path d="M269.314+69.2758C269.45+70.7993+269.83+71.9673+270.457+72.7798C271.608+74.2524+273.605+74.9887+276.449+74.9887C278.142+74.9887+279.631+74.6206+280.918+73.8842C282.204+73.1479+282.847+72.0096+282.847+70.4692C282.847+69.3012+282.331+68.4126+281.299+67.8032C280.638+67.4308+279.335+66.9992+277.388+66.5083L273.758+65.5942C271.438+65.0187+269.729+64.3755+268.629+63.6645C266.665+62.4288+265.683+60.7192+265.683+58.5356C265.683+55.9627+266.61+53.8807+268.464+52.2895C270.317+50.6984+272.81+49.9028+275.941+49.9028C280.037+49.9028+282.991+51.1046+284.802+53.5083C285.937+55.0317+286.487+56.6736+286.453+58.4341L282.136+58.4341C282.052+57.4015+281.688+56.462+281.045+55.6157C279.995+54.4139+278.175+53.813+275.586+53.813C273.859+53.813+272.551+54.143+271.663+54.8032C270.774+55.4633+270.33+56.3351+270.33+57.4184C270.33+58.6033+270.914+59.5512+272.082+60.2622C272.759+60.6854+273.758+61.0577+275.078+61.3794L278.099+62.1157C281.383+62.9113+283.584+63.6814+284.701+64.4262C286.478+65.5942+287.367+67.4308+287.367+69.936C287.367+72.3566+286.449+74.4471+284.612+76.2075C282.775+77.9679+279.978+78.8481+276.22+78.8481C272.175+78.8481+269.31+77.9298+267.626+76.0932C265.941+74.2566+265.04+71.9842+264.922+69.2758L269.314+69.2758Z" opacity="1" fill="#ffffff"/>
<path d="M307.045+50.7407L311.691+50.7407L311.691+77.8071L307.045+77.8071L307.045+50.7407ZM307.045+40.5083L311.691+40.5083L311.691+45.688L307.045+45.688L307.045+40.5083Z" opacity="1" fill="#ffffff"/>
<path d="M329.084+49.8266C332.147+49.8266+334.64+50.5714+336.561+52.061C338.482+53.5506+339.638+56.115+340.027+59.7544L335.584+59.7544C335.313+58.0786+334.695+56.6863+333.73+55.5776C332.765+54.4689+331.216+53.9145+329.084+53.9145C326.172+53.9145+324.09+55.3364+322.838+58.1801C322.025+60.0252+321.619+62.3019+321.619+65.0102C321.619+67.7355+322.194+70.0291+323.345+71.8911C324.496+73.7531+326.308+74.6841+328.779+74.6841C330.675+74.6841+332.177+74.1043+333.286+72.9448C334.395+71.7853+335.161+70.1984+335.584+68.1841L340.027+68.1841C339.519+71.7895+338.25+74.4259+336.218+76.0932C334.187+77.7605+331.589+78.5942+328.424+78.5942C324.869+78.5942+322.034+77.2951+319.918+74.6967C317.802+72.0984+316.744+68.8527+316.744+64.9594C316.744+60.186+317.903+56.4705+320.222+53.813C322.541+51.1554+325.495+49.8266+329.084+49.8266Z" opacity="1" fill="#ffffff"/>
<path d="M355.388+74.8618C358.418+74.8618+360.496+73.715+361.622+71.4214C362.747+69.1277+363.31+66.576+363.31+63.7661C363.31+61.227+362.904+59.1619+362.091+57.5708C360.805+55.0656+358.588+53.813+355.439+53.813C352.646+53.813+350.615+54.8794+349.345+57.0122C348.076+59.145+347.441+61.7179+347.441+64.7309C347.441+67.6255+348.076+70.0376+349.345+71.9673C350.615+73.8969+352.629+74.8618+355.388+74.8618ZM355.566+49.8266C359.07+49.8266+362.032+50.9946+364.453+53.3305C366.873+55.6665+368.084+59.1027+368.084+63.6391C368.084+68.0232+367.017+71.6456+364.884+74.5063C362.752+77.367+359.442+78.7973+354.957+78.7973C351.216+78.7973+348.245+77.532+346.045+75.0014C343.844+72.4708+342.744+69.0727+342.744+64.8071C342.744+60.2368+343.903+56.5975+346.222+53.8891C348.541+51.1808+351.656+49.8266+355.566+49.8266Z" opacity="1" fill="#ffffff"/>
<path d="M373.517+50.6137L377.859+50.6137L377.859+54.4731C379.146+52.882+380.508+51.7394+381.947+51.0454C383.386+50.3514+384.985+50.0044+386.746+50.0044C390.605+50.0044+393.212+51.3501+394.566+54.0415C395.311+55.5141+395.683+57.6216+395.683+60.3637L395.683+77.8071L391.037+77.8071L391.037+60.6684C391.037+59.0096+390.791+57.6723+390.3+56.6567C389.488+54.964+388.015+54.1176+385.883+54.1176C384.799+54.1176+383.911+54.2277+383.216+54.4477C381.964+54.8201+380.864+55.5649+379.916+56.6821C379.154+57.5792+378.659+58.506+378.43+59.4624C378.202+60.4188+378.088+61.7856+378.088+63.563L378.088+77.8071L373.517+77.8071L373.517+50.6137Z" opacity="1" fill="#ffffff"/>
<path d="M416.884+50.7407L421.531+50.7407L421.531+77.8071L416.884+77.8071L416.884+50.7407ZM416.884+40.5083L421.531+40.5083L421.531+45.688L416.884+45.688L416.884+40.5083Z" opacity="1" fill="#ffffff"/>
<path d="M431.154+69.2758C431.289+70.7993+431.67+71.9673+432.297+72.7798C433.448+74.2524+435.445+74.9887+438.289+74.9887C439.981+74.9887+441.471+74.6206+442.758+73.8842C444.044+73.1479+444.687+72.0096+444.687+70.4692C444.687+69.3012+444.171+68.4126+443.138+67.8032C442.478+67.4308+441.175+66.9992+439.228+66.5083L435.597+65.5942C433.278+65.0187+431.569+64.3755+430.468+63.6645C428.505+62.4288+427.523+60.7192+427.523+58.5356C427.523+55.9627+428.45+53.8807+430.303+52.2895C432.157+50.6984+434.649+49.9028+437.781+49.9028C441.877+49.9028+444.831+51.1046+446.642+53.5083C447.776+55.0317+448.327+56.6736+448.293+58.4341L443.976+58.4341C443.892+57.4015+443.528+56.462+442.884+55.6157C441.835+54.4139+440.015+53.813+437.425+53.813C435.699+53.813+434.391+54.143+433.503+54.8032C432.614+55.4633+432.17+56.3351+432.17+57.4184C432.17+58.6033+432.754+59.5512+433.922+60.2622C434.599+60.6854+435.597+61.0577+436.918+61.3794L439.939+62.1157C443.223+62.9113+445.424+63.6814+446.541+64.4262C448.318+65.5942+449.207+67.4308+449.207+69.936C449.207+72.3566+448.288+74.4471+446.452+76.2075C444.615+77.9679+441.818+78.8481+438.06+78.8481C434.015+78.8481+431.15+77.9298+429.466+76.0932C427.781+74.2566+426.88+71.9842+426.761+69.2758L431.154+69.2758Z" opacity="1" fill="#ffffff"/>
<path d="M469.799+43.0219L474.42+43.0219L474.42+50.6137L478.761+50.6137L478.761+54.3462L474.42+54.3462L474.42+72.0942C474.42+73.0421+474.741+73.6769+475.384+73.9985C475.74+74.1847+476.332+74.2778+477.162+74.2778C477.382+74.2778+477.619+74.2736+477.873+74.2651C478.127+74.2566+478.423+74.2355+478.761+74.2016L478.761+77.8071C478.237+77.9594+477.691+78.0695+477.124+78.1372C476.557+78.2049+475.943+78.2387+475.283+78.2387C473.15+78.2387+471.703+77.6928+470.941+76.601C470.179+75.5092+469.799+74.0916+469.799+72.3481L469.799+54.3462L466.117+54.3462L466.117+50.6137L469.799+50.6137L469.799+43.0219Z" opacity="1" fill="#ffffff"/>
<path d="M483.332+40.3813L487.902+40.3813L487.902+54.2954C488.985+52.9243+489.959+51.9594+490.822+51.4008C492.295+50.436+494.131+49.9536+496.332+49.9536C500.276+49.9536+502.95+51.3331+504.355+54.0923C505.117+55.5988+505.498+57.6893+505.498+60.3637L505.498+77.8071L500.8+77.8071L500.8+60.6684C500.8+58.671+500.547+57.2068+500.039+56.2758C499.209+54.7863+497.652+54.0415+495.367+54.0415C493.471+54.0415+491.753+54.6932+490.213+55.9966C488.672+57.2999+487.902+59.7628+487.902+63.3852L487.902+77.8071L483.332+77.8071L483.332+40.3813Z" opacity="1" fill="#ffffff"/>
<path d="M523.576+50.0044C525.506+50.0044+527.376+50.4572+529.187+51.3628C530.998+52.2684+532.378+53.4406+533.326+54.8794C534.24+56.2505+534.849+57.8501+535.154+59.6782C535.425+60.9308+535.56+62.9282+535.56+65.6704L515.629+65.6704C515.713+68.4295+516.365+70.6427+517.584+72.31C518.802+73.9773+520.69+74.811+523.246+74.811C525.633+74.811+527.537+74.0239+528.959+72.4497C529.771+71.5356+530.347+70.4777+530.685+69.2758L535.179+69.2758C535.061+70.2745+534.667+71.3875+533.999+72.6147C533.33+73.8419+532.581+74.8449+531.752+75.6235C530.364+76.9777+528.646+77.8917+526.597+78.3657C525.497+78.6365+524.253+78.7719+522.865+78.7719C519.48+78.7719+516.61+77.5405+514.258+75.0776C511.905+72.6147+510.728+69.1658+510.728+64.7309C510.728+60.3637+511.913+56.8175+514.283+54.0923C516.653+51.367+519.75+50.0044+523.576+50.0044ZM530.863+62.0395C530.677+60.0591+530.245+58.4764+529.568+57.2915C528.315+55.091+526.225+53.9907+523.297+53.9907C521.198+53.9907+519.437+54.7482+518.015+56.2632C516.593+57.7781+515.84+59.7036+515.756+62.0395L530.863+62.0395Z" opacity="1" fill="#ffffff"/>
</g>
</g>
<g id="Stars" vectornator:layerName="Stars">
<path d="M534.32+485.883C534.32+483.121+536.559+480.883+539.321+480.883C542.082+480.883+544.32+483.121+544.32+485.883C544.32+488.644+542.082+490.883+539.321+490.883C536.559+490.883+534.32+488.644+534.32+485.883Z" fill-rule="evenodd" fill="#ffffff" opacity="1"/>
<path d="M219.382+32.8071C219.382+30.0457+221.621+27.8071+224.382+27.8071C227.143+27.8071+229.382+30.0457+229.382+32.8071C229.382+35.5686+227.143+37.8071+224.382+37.8071C221.621+37.8071+219.382+35.5686+219.382+32.8071Z" fill-rule="evenodd" fill="#ffffff" opacity="1"/>
<path d="M477.34+421.205C477.34+418.444+479.579+416.205+482.341+416.205C485.102+416.205+487.34+418.444+487.34+421.205C487.34+423.967+485.102+426.205+482.341+426.205C479.579+426.205+477.34+423.967+477.34+421.205Z" fill-rule="evenodd" fill="#ffffff" opacity="1"/>
<path d="M453.574+125.168C453.574+122.407+455.813+120.168+458.574+120.168C461.335+120.168+463.574+122.407+463.574+125.168C463.574+127.93+461.335+130.168+458.574+130.168C455.813+130.168+453.574+127.93+453.574+125.168Z" fill-rule="evenodd" fill="#ffffff" opacity="1"/>
<path d="M95.7837+240.893C95.7837+238.132+98.0222+235.893+100.784+235.893C103.545+235.893+105.784+238.132+105.784+240.893C105.784+243.654+103.545+245.893+100.784+245.893C98.0222+245.893+95.7837+243.654+95.7837+240.893Z" fill-rule="evenodd" fill="#ffffff" opacity="1"/>
<path d="M100.784+318.869C100.784+316.108+103.022+313.869+105.784+313.869C108.545+313.869+110.784+316.108+110.784+318.869C110.784+321.631+108.545+323.869+105.784+323.869C103.022+323.869+100.784+321.631+100.784+318.869Z" fill-rule="evenodd" fill="#ffffff" opacity="1"/>
<path d="M49.0231+345.529C49.0231+342.768+51.2617+340.529+54.0231+340.529C56.7845+340.529+59.0231+342.768+59.0231+345.529C59.0231+348.291+56.7845+350.529+54.0231+350.529C51.2617+350.529+49.0231+348.291+49.0231+345.529Z" fill-rule="evenodd" fill="#ffffff" opacity="1"/>
<path d="M423.574+463.529C423.574+460.768+425.813+458.529+428.574+458.529C431.335+458.529+433.574+460.768+433.574+463.529C433.574+466.291+431.335+468.529+428.574+468.529C425.813+468.529+423.574+466.291+423.574+463.529Z" fill-rule="evenodd" fill="#ffffff" opacity="1"/>
<path d="M164.905+485.883C164.905+483.121+167.144+480.883+169.905+480.883C172.667+480.883+174.905+483.121+174.905+485.883C174.905+488.644+172.667+490.883+169.905+490.883C167.144+490.883+164.905+488.644+164.905+485.883Z" fill-rule="evenodd" fill="#ffffff" opacity="1"/>
<path d="M34.0231+159.262C34.0231+156.501+36.2617+154.262+39.0231+154.262C41.7845+154.262+44.0231+156.501+44.0231+159.262C44.0231+162.024+41.7845+164.262+39.0231+164.262C36.2617+164.262+34.0231+162.024+34.0231+159.262Z" fill-rule="evenodd" fill="#ffffff" opacity="1"/>
<path d="M620+426.205C620+423.444+622.239+421.205+625+421.205C627.761+421.205+630+423.444+630+426.205C630+428.967+627.761+431.205+625+431.205C622.239+431.205+620+428.967+620+426.205Z" fill-rule="evenodd" fill="#ffffff" opacity="1"/>
<path d="M519.321+378.423C519.321+375.661+521.559+373.423+524.321+373.423C527.082+373.423+529.32+375.661+529.32+378.423C529.32+381.184+527.082+383.423+524.321+383.423C521.559+383.423+519.321+381.184+519.321+378.423Z" fill-rule="evenodd" fill="#ffffff" opacity="1"/>
<path d="M433.574+323.869C433.574+321.108+435.813+318.869+438.574+318.869C441.335+318.869+443.574+321.108+443.574+323.869C443.574+326.631+441.335+328.869+438.574+328.869C435.813+328.869+433.574+326.631+433.574+323.869Z" fill-rule="evenodd" fill="#ffffff" opacity="1"/>
<path d="M327.417+212.529C327.417+209.768+329.655+207.529+332.417+207.529C335.178+207.529+337.417+209.768+337.417+212.529C337.417+215.291+335.178+217.529+332.417+217.529C329.655+217.529+327.417+215.291+327.417+212.529Z" fill-rule="evenodd" fill="#ffffff" opacity="1"/>
<path d="M524.321+279.328C524.321+276.566+526.559+274.328+529.321+274.328C532.082+274.328+534.32+276.566+534.32+279.328C534.32+282.089+532.082+284.328+529.321+284.328C526.559+284.328+524.321+282.089+524.321+279.328Z" fill-rule="evenodd" fill="#ffffff" opacity="1"/>
<path d="M39.0231+78.1488C39.0231+75.3874+41.2617+73.1488+44.0231+73.1488C46.7845+73.1488+49.0231+75.3874+49.0231+78.1488C49.0231+80.9102+46.7845+83.1488+44.0231+83.1488C41.2617+83.1488+39.0231+80.9102+39.0231+78.1488Z" fill-rule="evenodd" fill="#ffffff" opacity="1"/>
<path d="M443.574+190.245C443.574+187.483+445.813+185.245+448.574+185.245C451.335+185.245+453.574+187.483+453.574+190.245C453.574+193.006+451.335+195.245+448.574+195.245C445.813+195.245+443.574+193.006+443.574+190.245Z" fill-rule="evenodd" fill="#ffffff" opacity="1"/>
<path d="M209.382+125.168C209.382+122.407+211.621+120.168+214.382+120.168C217.143+120.168+219.382+122.407+219.382+125.168C219.382+127.93+217.143+130.168+214.382+130.168C211.621+130.168+209.382+127.93+209.382+125.168Z" fill-rule="evenodd" fill="#ffffff" opacity="1"/>
<path d="M39.0231+475.883C39.0231+473.121+41.2617+470.883+44.0231+470.883C46.7845+470.883+49.0231+473.121+49.0231+475.883C49.0231+478.644+46.7845+480.883+44.0231+480.883C41.2617+480.883+39.0231+478.644+39.0231+475.883Z" fill-rule="evenodd" fill="#ffffff" opacity="1"/>
<g opacity="1">
<path d="M141.104+407.512L141.104+425.564C141.104+426.952+141.324+428.086+141.764+428.967C142.577+430.592+144.092+431.404+146.309+431.404C149.492+431.404+151.658+429.982+152.809+427.139C153.436+425.615+153.749+423.525+153.749+420.867L153.749+407.512L158.319+407.512L158.319+434.705L154.003+434.705L154.053+430.693C153.461+431.726+152.725+432.598+151.844+433.309C150.101+434.73+147.985+435.441+145.497+435.441C141.62+435.441+138.98+434.146+137.575+431.557C136.813+430.169+136.432+428.315+136.432+425.996L136.432+407.512L141.104+407.512Z" opacity="1" fill="#ffffff"/>
<path d="M168.171+426.174C168.306+427.697+168.687+428.865+169.313+429.678C170.464+431.15+172.462+431.887+175.305+431.887C176.998+431.887+178.488+431.518+179.774+430.782C181.061+430.046+181.704+428.907+181.704+427.367C181.704+426.199+181.188+425.31+180.155+424.701C179.495+424.329+178.191+423.897+176.245+423.406L172.614+422.492C170.295+421.917+168.585+421.273+167.485+420.562C165.522+419.327+164.54+417.617+164.54+415.434C164.54+412.861+165.466+410.779+167.32+409.187C169.174+407.596+171.666+406.801+174.798+406.801C178.894+406.801+181.848+408.003+183.659+410.406C184.793+411.93+185.343+413.572+185.309+415.332L180.993+415.332C180.908+414.299+180.544+413.36+179.901+412.514C178.852+411.312+177.032+410.711+174.442+410.711C172.716+410.711+171.408+411.041+170.519+411.701C169.631+412.361+169.186+413.233+169.186+414.316C169.186+415.501+169.77+416.449+170.938+417.16C171.615+417.583+172.614+417.956+173.934+418.277L176.956+419.014C180.24+419.809+182.44+420.579+183.557+421.324C185.335+422.492+186.223+424.329+186.223+426.834C186.223+429.254+185.305+431.345+183.468+433.105C181.632+434.866+178.835+435.746+175.077+435.746C171.031+435.746+168.166+434.828+166.482+432.991C164.798+431.155+163.897+428.882+163.778+426.174L168.171+426.174Z" opacity="1" fill="#ffffff"/>
<path d="M202.778+406.902C204.708+406.902+206.578+407.355+208.389+408.261C210.201+409.166+211.58+410.338+212.528+411.777C213.442+413.148+214.051+414.748+214.356+416.576C214.627+417.829+214.762+419.826+214.762+422.568L194.831+422.568C194.915+425.327+195.567+427.541+196.786+429.208C198.005+430.875+199.892+431.709+202.448+431.709C204.835+431.709+206.739+430.922+208.161+429.348C208.973+428.434+209.549+427.376+209.887+426.174L214.382+426.174C214.263+427.172+213.869+428.285+213.201+429.513C212.532+430.74+211.783+431.743+210.954+432.521C209.566+433.876+207.848+434.79+205.799+435.264C204.699+435.534+203.455+435.67+202.067+435.67C198.682+435.67+195.813+434.438+193.46+431.975C191.107+429.513+189.93+426.064+189.93+421.629C189.93+417.262+191.115+413.715+193.485+410.99C195.855+408.265+198.952+406.902+202.778+406.902ZM210.065+418.937C209.879+416.957+209.447+415.374+208.77+414.189C207.518+411.989+205.427+410.889+202.499+410.889C200.4+410.889+198.639+411.646+197.217+413.161C195.796+414.676+195.042+416.601+194.958+418.937L210.065+418.937Z" opacity="1" fill="#ffffff"/>
<path d="M220.501+407.512L224.842+407.512L224.842+412.209C225.198+411.295+226.07+410.182+227.458+408.87C228.846+407.558+230.445+406.902+232.257+406.902C232.341+406.902+232.485+406.911+232.688+406.928C232.891+406.945+233.238+406.978+233.729+407.029L233.729+411.853C233.458+411.803+233.209+411.769+232.98+411.752C232.752+411.735+232.502+411.726+232.231+411.726C229.929+411.726+228.16+412.467+226.924+413.948C225.689+415.429+225.071+417.135+225.071+419.064L225.071+434.705L220.501+434.705L220.501+407.512Z" opacity="1" fill="#ffffff"/>
<path d="M240.407+426.174C240.542+427.697+240.923+428.865+241.549+429.678C242.701+431.15+244.698+431.887+247.542+431.887C249.234+431.887+250.724+431.518+252.01+430.782C253.297+430.046+253.94+428.907+253.94+427.367C253.94+426.199+253.424+425.31+252.391+424.701C251.731+424.329+250.428+423.897+248.481+423.406L244.85+422.492C242.531+421.917+240.822+421.273+239.721+420.562C237.758+419.327+236.776+417.617+236.776+415.434C236.776+412.861+237.703+410.779+239.556+409.187C241.41+407.596+243.902+406.801+247.034+406.801C251.13+406.801+254.084+408.003+255.895+410.406C257.029+411.93+257.579+413.572+257.546+415.332L253.229+415.332C253.145+414.299+252.781+413.36+252.137+412.514C251.088+411.312+249.268+410.711+246.678+410.711C244.952+410.711+243.644+411.041+242.756+411.701C241.867+412.361+241.423+413.233+241.423+414.316C241.423+415.501+242.007+416.449+243.174+417.16C243.852+417.583+244.85+417.956+246.171+418.277L249.192+419.014C252.476+419.809+254.676+420.579+255.794+421.324C257.571+422.492+258.46+424.329+258.46+426.834C258.46+429.254+257.541+431.345+255.705+433.105C253.868+434.866+251.071+435.746+247.313+435.746C243.268+435.746+240.403+434.828+238.718+432.991C237.034+431.155+236.133+428.882+236.014+426.174L240.407+426.174Z" opacity="1" fill="#ffffff"/>
<path d="M280.245+407.512L285.475+428.941L290.782+407.512L295.911+407.512L301.243+428.814L306.803+407.512L311.374+407.512L303.477+434.705L298.729+434.705L293.194+413.656L287.837+434.705L283.089+434.705L275.243+407.512L280.245+407.512Z" opacity="1" fill="#ffffff"/>
<path d="M315.69+407.639L320.337+407.639L320.337+434.705L315.69+434.705L315.69+407.639ZM315.69+397.406L320.337+397.406L320.337+402.586L315.69+402.586L315.69+397.406Z" opacity="1" fill="#ffffff"/>
<path d="M327.37+397.406L331.94+397.406L331.94+434.705L327.37+434.705L327.37+397.406Z" opacity="1" fill="#ffffff"/>
<path d="M338.923+397.406L343.493+397.406L343.493+434.705L338.923+434.705L338.923+397.406Z" opacity="1" fill="#ffffff"/>
<path d="M367.512+426.174C367.648+427.697+368.029+428.865+368.655+429.678C369.806+431.15+371.803+431.887+374.647+431.887C376.34+431.887+377.829+431.518+379.116+430.782C380.402+430.046+381.046+428.907+381.046+427.367C381.046+426.199+380.529+425.31+379.497+424.701C378.837+424.329+377.533+423.897+375.587+423.406L371.956+422.492C369.637+421.917+367.927+421.273+366.827+420.562C364.863+419.327+363.882+417.617+363.882+415.434C363.882+412.861+364.808+410.779+366.662+409.187C368.515+407.596+371.008+406.801+374.139+406.801C378.236+406.801+381.189+408.003+383.001+410.406C384.135+411.93+384.685+413.572+384.651+415.332L380.335+415.332C380.25+414.299+379.886+413.36+379.243+412.514C378.193+411.312+376.374+410.711+373.784+410.711C372.057+410.711+370.75+411.041+369.861+411.701C368.972+412.361+368.528+413.233+368.528+414.316C368.528+415.501+369.112+416.449+370.28+417.16C370.957+417.583+371.956+417.956+373.276+418.277L376.298+419.014C379.581+419.809+381.782+420.579+382.899+421.324C384.676+422.492+385.565+424.329+385.565+426.834C385.565+429.254+384.647+431.345+382.81+433.105C380.974+434.866+378.176+435.746+374.419+435.746C370.373+435.746+367.508+434.828+365.824+432.991C364.14+431.155+363.238+428.882+363.12+426.174L367.512+426.174Z" opacity="1" fill="#ffffff"/>
<path d="M402.12+406.902C404.049+406.902+405.92+407.355+407.731+408.261C409.542+409.166+410.922+410.338+411.87+411.777C412.784+413.148+413.393+414.748+413.698+416.576C413.969+417.829+414.104+419.826+414.104+422.568L394.173+422.568C394.257+425.327+394.909+427.541+396.128+429.208C397.346+430.875+399.234+431.709+401.79+431.709C404.176+431.709+406.081+430.922+407.503+429.348C408.315+428.434+408.891+427.376+409.229+426.174L413.723+426.174C413.605+427.172+413.211+428.285+412.543+429.513C411.874+430.74+411.125+431.743+410.296+432.521C408.908+433.876+407.189+434.79+405.141+435.264C404.041+435.534+402.797+435.67+401.409+435.67C398.023+435.67+395.154+434.438+392.801+431.975C390.449+429.513+389.272+426.064+389.272+421.629C389.272+417.262+390.457+413.715+392.827+410.99C395.197+408.265+398.294+406.902+402.12+406.902ZM409.407+418.937C409.221+416.957+408.789+415.374+408.112+414.189C406.859+411.989+404.769+410.889+401.841+410.889C399.742+410.889+397.981+411.646+396.559+413.161C395.137+414.676+394.384+416.601+394.299+418.937L409.407+418.937Z" opacity="1" fill="#ffffff"/>
<path d="M431.04+406.902C432.969+406.902+434.84+407.355+436.651+408.261C438.462+409.166+439.842+410.338+440.79+411.777C441.704+413.148+442.313+414.748+442.618+416.576C442.889+417.829+443.024+419.826+443.024+422.568L423.092+422.568C423.177+425.327+423.829+427.541+425.048+429.208C426.266+430.875+428.154+431.709+430.71+431.709C433.096+431.709+435.001+430.922+436.423+429.348C437.235+428.434+437.811+427.376+438.149+426.174L442.643+426.174C442.525+427.172+442.131+428.285+441.463+429.513C440.794+430.74+440.045+431.743+439.216+432.521C437.827+433.876+436.109+434.79+434.061+435.264C432.961+435.534+431.717+435.67+430.329+435.67C426.943+435.67+424.074+434.438+421.721+431.975C419.369+429.513+418.192+426.064+418.192+421.629C418.192+417.262+419.377+413.715+421.747+410.99C424.117+408.265+427.214+406.902+431.04+406.902ZM438.327+418.937C438.141+416.957+437.709+415.374+437.032+414.189C435.779+411.989+433.689+410.889+430.76+410.889C428.661+410.889+426.901+411.646+425.479+413.161C424.057+414.676+423.304+416.601+423.219+418.937L438.327+418.937Z" opacity="1" fill="#ffffff"/>
</g>
<path vectornator:shadowColor="#000000" vectornator:shadowOpacity="0.141964" vectornator:shadowRadius="9.65504" d="M1036.84+23.7188C1007.5+23.7187+983.719+46.8307+983.719+75.3125L983.719+424.688C983.719+453.169+1007.5+476.281+1036.84+476.281L1304.28+476.281C1333.62+476.281+1357.41+453.169+1357.41+424.688L1357.41+75.3125C1357.41+46.8307+1333.62+23.7188+1304.28+23.7188L1036.84+23.7188ZM1042.75+33.7188L1298.38+33.7188C1326.42+33.7188+1349.16+55.8082+1349.16+83.0312L1349.16+416.969C1349.16+444.192+1326.42+466.281+1298.38+466.281L1042.75+466.281C1014.7+466.281+991.969+444.192+991.969+416.969L991.969+83.0312C991.969+55.8082+1014.7+33.7187+1042.75+33.7188ZM1053.12+119.219C1048.55+119.219+1045.03+120.372+1042.53+122.688C1040.03+125.003+1038.78+127.953+1038.78+131.562C1038.78+134.898+1040.04+137.417+1042.59+139.094C1044.07+140.06+1046.6+140.948+1050.16+141.75L1055.59+142.969C1058.55+143.643+1060.71+144.432+1062.09+145.344C1063.46+146.273+1064.16+147.844+1064.16+150.031C1064.16+152.948+1062.53+154.964+1059.28+156.094C1057.6+156.677+1055.76+156.969+1053.72+156.969C1049.16+156.969+1045.96+155.63+1044.16+152.969C1043.21+151.547+1042.69+149.716+1042.56+147.438L1037.44+147.438C1037.38+151.776+1038.77+155.216+1041.59+157.75C1044.42+160.302+1048.32+161.562+1053.31+161.562C1057.6+161.562+1061.36+160.602+1064.59+158.688C1067.83+156.773+1069.47+153.604+1069.47+149.156C1069.47+145.583+1068.18+142.846+1065.62+140.969C1064.15+139.893+1062.06+139.057+1059.34+138.438L1053.72+137.156C1049.93+136.281+1047.48+135.552+1046.41+134.969C1044.77+134.057+1043.94+132.625+1043.94+130.656C1043.94+128.87+1044.66+127.286+1046.06+125.938C1047.47+124.589+1049.76+123.906+1052.97+123.906C1056.94+123.906+1059.75+124.966+1061.41+127.062C1062.3+128.211+1062.88+129.849+1063.16+132L1068.28+132C1068.28+127.534+1066.82+124.283+1063.88+122.25C1060.93+120.217+1057.34+119.219+1053.12+119.219ZM1200.06+120.219L1200.06+160.406L1204.81+160.406L1204.81+149.406L1208.94+145.625L1218.06+160.406L1224.34+160.406L1212.53+142.062L1223.72+131.094L1217.44+131.094L1204.81+143.562L1204.81+120.219L1200.06+120.219ZM1087.5+130.25C1083.29+130.25+1079.93+131.708+1077.44+134.625C1074.94+137.542+1073.69+141.484+1073.69+146.406C1073.69+151+1074.88+154.65+1077.25+157.375C1079.62+160.1+1082.82+161.469+1086.84+161.469C1091.67+161.469+1095.23+159.924+1097.53+156.844C1099.83+153.763+1100.97+149.846+1100.97+145.125C1100.97+140.24+1099.67+136.547+1097.06+134.031C1094.46+131.516+1091.27+130.25+1087.5+130.25ZM1180.53+130.406C1177.56+130.406+1174.94+131.118+1172.69+132.531C1170.44+133.944+1169.28+136.453+1169.19+140.062L1173.78+140.062C1173.96+138.549+1174.34+137.391+1174.94+136.625C1176.01+135.24+1177.84+134.562+1180.41+134.562C1182.63+134.562+1184.34+134.931+1185.53+135.688C1186.73+136.444+1187.34+137.667+1187.34+139.344C1187.34+140.164+1187.22+140.781+1187+141.219C1186.62+142.021+1185.88+142.51+1184.75+142.656L1176.88+143.625C1174.12+143.971+1171.91+144.911+1170.22+146.406C1168.52+147.901+1167.69+150.003+1167.69+152.719C1167.69+155.198+1168.53+157.257+1170.25+158.906C1171.97+160.556+1174.19+161.375+1176.91+161.375C1179.17+161.375+1181.25+160.904+1183.12+159.938C1185+158.971+1186.43+157.813+1187.44+156.5C1187.6+157.667+1187.88+158.581+1188.28+159.219C1189.05+160.422+1190.27+161.031+1191.97+161.031C1192.66+161.031+1193.22+160.992+1193.62+160.938C1194.03+160.883+1194.61+160.75+1195.38+160.531L1195.38+156.906C1195.07+156.961+1194.77+157.004+1194.5+157.031C1194.23+157.059+1193.97+157.062+1193.75+157.062C1193.08+157.062+1192.65+156.904+1192.44+156.594C1192.23+156.284+1192.13+155.885+1192.12+155.375L1192.12+138.5C1192.12+135.729+1191.04+133.688+1188.91+132.375C1186.76+131.062+1183.98+130.406+1180.53+130.406ZM1135.97+130.438C1133.91+130.438+1132.06+131.013+1130.44+132.125C1129.49+132.781+1128.42+133.81+1127.25+135.25L1127.25+131.094L1122.41+131.094L1122.41+160.406L1127.31+160.406L1127.31+144.875C1127.31+141.102+1128.07+138.471+1129.59+137.031C1131.12+135.591+1132.8+134.875+1134.66+134.875C1136.7+134.875+1138.1+135.57+1138.84+136.938C1139.32+137.849+1139.56+139.294+1139.56+141.281L1139.56+160.406L1144.56+160.406L1144.56+143.344C1144.56+140.318+1145.26+138.169+1146.66+136.875C1148.05+135.581+1149.72+134.938+1151.66+134.938C1153.06+134.938+1154.24+135.302+1155.22+136.031C1156.19+136.76+1156.69+138.112+1156.69+140.062L1156.69+160.406L1161.78+160.406L1161.78+140.906C1161.78+138.318+1161.42+136.25+1160.66+134.719C1159.23+131.875+1156.53+130.438+1152.59+130.438C1150.75+130.438+1149.1+130.837+1147.62+131.594C1146.15+132.35+1144.88+133.495+1143.78+135.062C1143.12+133.786+1142.4+132.844+1141.59+132.188C1140.17+131.039+1138.3+130.438+1135.97+130.438ZM1240.38+130.438C1236.26+130.438+1232.93+131.909+1230.38+134.844C1227.82+137.779+1226.53+141.609+1226.53+146.312C1226.53+151.089+1227.81+154.816+1230.34+157.469C1232.88+160.121+1235.98+161.438+1239.62+161.438C1241.12+161.438+1242.44+161.292+1243.62+161C1245.83+160.49+1247.69+159.49+1249.19+158.031C1250.08+157.193+1250.87+156.134+1251.59+154.812C1252.31+153.491+1252.75+152.294+1252.88+151.219L1248.03+151.219C1247.67+152.513+1247.06+153.641+1246.19+154.625C1244.66+156.32+1242.6+157.156+1240.03+157.156C1237.28+157.156+1235.25+156.264+1233.94+154.469C1232.62+152.673+1231.9+150.284+1231.81+147.312L1253.28+147.312C1253.28+144.359+1253.14+142.224+1252.84+140.875C1252.52+138.906+1251.86+137.164+1250.88+135.688C1249.85+134.138+1248.39+132.882+1246.44+131.906C1244.49+130.931+1242.45+130.438+1240.38+130.438ZM1087.38+134.562C1090.77+134.562+1093.15+135.896+1094.53+138.594C1095.41+140.307+1095.84+142.547+1095.84+145.281C1095.84+148.307+1095.24+151.061+1094.03+153.531C1092.82+156.001+1090.58+157.219+1087.31+157.219C1084.34+157.219+1082.18+156.172+1080.81+154.094C1079.45+152.016+1078.75+149.43+1078.75+146.312C1078.75+143.068+1079.45+140.297+1080.81+138C1082.18+135.703+1084.37+134.562+1087.38+134.562ZM1240.09+134.75C1243.25+134.75+1245.49+135.943+1246.84+138.312C1247.57+139.589+1248.02+141.273+1248.22+143.406L1231.97+143.406C1232.06+140.891+1232.87+138.819+1234.41+137.188C1235.94+135.556+1237.83+134.75+1240.09+134.75ZM1187.19+145.5L1187.19+149.469C1187.19+152.495+1185.83+154.669+1183.09+156C1181.47+156.802+1179.79+157.188+1178.06+157.188C1176.64+157.188+1175.41+156.789+1174.38+155.969C1173.34+155.148+1172.81+154.016+1172.81+152.594C1172.81+150.716+1173.58+149.357+1175.09+148.5C1175.99+147.99+1177.31+147.612+1179.09+147.375L1182.09+147C1183.01+146.891+1183.93+146.693+1184.88+146.438C1185.82+146.182+1186.59+145.883+1187.19+145.5ZM1162.84+187.219L1162.84+192.812L1167.84+192.812L1167.84+187.219L1162.84+187.219ZM1176.25+189.938L1176.25+198.094L1172.28+198.094L1172.28+202.125L1176.25+202.125L1176.25+221.5C1176.25+223.378+1176.68+224.918+1177.5+226.094C1178.32+227.27+1179.86+227.844+1182.16+227.844C1182.87+227.844+1183.55+227.823+1184.16+227.75C1184.77+227.677+1185.34+227.57+1185.91+227.406L1185.91+223.5C1185.54+223.536+1185.24+223.585+1184.97+223.594C1184.7+223.603+1184.42+223.594+1184.19+223.594C1183.29+223.594+1182.66+223.482+1182.28+223.281C1181.59+222.935+1181.25+222.271+1181.25+221.25L1181.25+202.125L1185.91+202.125L1185.91+198.094L1181.25+198.094L1181.25+189.938L1176.25+189.938ZM1048.41+197.344C1045.03+197.344+1042.34+198.193+1040.34+199.906C1038.35+201.62+1037.34+203.854+1037.34+206.625C1037.34+208.977+1038.42+210.826+1040.53+212.156C1041.72+212.922+1043.57+213.63+1046.06+214.25L1049.97+215.219C1052.07+215.747+1053.45+216.224+1054.16+216.625C1055.27+217.281+1055.84+218.242+1055.84+219.5C1055.84+221.159+1055.14+222.363+1053.75+223.156C1052.36+223.949+1050.76+224.344+1048.94+224.344C1045.87+224.344+1043.74+223.555+1042.5+221.969C1041.83+221.094+1041.4+219.859+1041.25+218.219L1036.53+218.219C1036.66+221.135+1037.62+223.585+1039.44+225.562C1041.25+227.54+1044.33+228.5+1048.69+228.5C1052.73+228.5+1055.77+227.552+1057.75+225.656C1059.73+223.76+1060.72+221.513+1060.72+218.906C1060.72+216.208+1059.76+214.227+1057.84+212.969C1056.64+212.167+1054.26+211.357+1050.72+210.5L1047.47+209.688C1046.05+209.341+1044.98+208.956+1044.25+208.5C1042.99+207.734+1042.34+206.714+1042.34+205.438C1042.34+204.271+1042.82+203.336+1043.78+202.625C1044.74+201.914+1046.17+201.562+1048.03+201.562C1050.82+201.562+1052.78+202.206+1053.91+203.5C1054.6+204.411+1054.97+205.419+1055.06+206.531L1059.72+206.531C1059.76+204.635+1059.16+202.859+1057.94+201.219C1055.99+198.63+1052.82+197.344+1048.41+197.344ZM1110.28+197.438C1108.33+197.438+1106.62+198.15+1105.12+199.562C1103.63+200.975+1102.66+202.172+1102.28+203.156L1102.28+198.094L1097.62+198.094L1097.62+227.406L1102.53+227.406L1102.53+210.562C1102.53+208.484+1103.2+206.626+1104.53+205.031C1105.86+203.436+1107.77+202.656+1110.25+202.656C1110.54+202.656+1110.82+202.669+1111.06+202.688C1111.31+202.706+1111.58+202.727+1111.88+202.781L1111.88+197.594C1111.35+197.539+1110.97+197.487+1110.75+197.469C1110.53+197.451+1110.37+197.438+1110.28+197.438ZM1128.31+197.438C1124.19+197.438+1120.86+198.909+1118.31+201.844C1115.76+204.779+1114.5+208.609+1114.5+213.312C1114.5+218.089+1115.75+221.816+1118.28+224.469C1120.82+227.121+1123.92+228.438+1127.56+228.438C1129.06+228.438+1130.41+228.292+1131.59+228C1133.8+227.49+1135.63+226.49+1137.12+225.031C1138.02+224.193+1138.84+223.134+1139.56+221.812C1140.28+220.491+1140.68+219.294+1140.81+218.219L1135.97+218.219C1135.6+219.513+1135+220.641+1134.12+221.625C1132.59+223.32+1130.54+224.156+1127.97+224.156C1125.22+224.156+1123.19+223.264+1121.88+221.469C1120.56+219.673+1119.87+217.284+1119.78+214.312L1141.22+214.312C1141.22+211.359+1141.07+209.224+1140.78+207.875C1140.45+205.906+1139.8+204.164+1138.81+202.688C1137.79+201.138+1136.33+199.882+1134.38+198.906C1132.42+197.931+1130.39+197.438+1128.31+197.438ZM1066.22+198.094L1066.22+218C1066.22+220.497+1066.65+222.505+1067.47+224C1068.98+226.789+1071.83+228.187+1076+228.188C1078.68+228.188+1080.93+227.406+1082.81+225.875C1083.76+225.109+1084.58+224.174+1085.22+223.062L1085.16+227.406L1089.81+227.406L1089.81+198.094L1084.88+198.094L1084.88+212.5C1084.88+215.362+1084.55+217.609+1083.88+219.25C1082.64+222.313+1080.3+223.844+1076.88+223.844C1074.49+223.844+1072.84+222.969+1071.97+221.219C1071.49+220.271+1071.25+219.057+1071.25+217.562L1071.25+198.094L1066.22+198.094ZM1162.84+198.25L1162.84+227.406L1167.84+227.406L1167.84+198.25L1162.84+198.25ZM1128.03+201.75C1131.18+201.75+1133.43+202.943+1134.78+205.312C1135.51+206.589+1135.99+208.273+1136.19+210.406L1119.91+210.406C1120+207.891+1120.81+205.819+1122.34+204.188C1123.88+202.556+1125.77+201.75+1128.03+201.75ZM1218.88+254.094L1218.88+294.406L1223.81+294.406L1223.81+278.875C1223.81+274.974+1224.65+272.31+1226.31+270.906C1227.97+269.503+1229.8+268.812+1231.84+268.812C1234.3+268.812+1235.98+269.615+1236.88+271.219C1237.42+272.221+1237.69+273.786+1237.69+275.938L1237.69+294.406L1242.75+294.406L1242.75+275.594C1242.75+272.714+1242.35+270.466+1241.53+268.844C1240.02+265.872+1237.12+264.406+1232.88+264.406C1230.51+264.406+1228.55+264.93+1226.97+265.969C1226.04+266.57+1224.98+267.586+1223.81+269.062L1223.81+254.094L1218.88+254.094ZM1038.22+254.219L1038.22+294.406L1042.97+294.406L1042.97+283.406L1047.09+279.625L1056.22+294.406L1062.5+294.406L1050.66+276.062L1061.88+265.094L1055.59+265.094L1042.97+277.562L1042.97+254.219L1038.22+254.219ZM1204.31+256.938L1204.31+265.094L1200.34+265.094L1200.34+269.125L1204.31+269.125L1204.31+288.5C1204.31+290.378+1204.71+291.918+1205.53+293.094C1206.35+294.27+1207.92+294.844+1210.22+294.844C1210.93+294.844+1211.58+294.823+1212.19+294.75C1212.8+294.677+1213.4+294.57+1213.97+294.406L1213.97+290.5C1213.6+290.536+1213.27+290.585+1213+290.594C1212.73+290.603+1212.49+290.594+1212.25+290.594C1211.36+290.594+1210.73+290.482+1210.34+290.281C1209.65+289.935+1209.28+289.271+1209.28+288.25L1209.28+269.125L1213.97+269.125L1213.97+265.094L1209.28+265.094L1209.28+256.938L1204.31+256.938ZM1169.84+264.344C1166.47+264.344+1163.78+265.193+1161.78+266.906C1159.79+268.62+1158.78+270.854+1158.78+273.625C1158.78+275.977+1159.85+277.826+1161.97+279.156C1163.15+279.922+1164.97+280.63+1167.47+281.25L1171.41+282.219C1173.5+282.747+1174.88+283.224+1175.59+283.625C1176.71+284.281+1177.28+285.242+1177.28+286.5C1177.28+288.159+1176.57+289.363+1175.19+290.156C1173.8+290.949+1172.2+291.344+1170.38+291.344C1167.31+291.344+1165.18+290.555+1163.94+288.969C1163.26+288.094+1162.83+286.859+1162.69+285.219L1157.97+285.219C1158.1+288.135+1159.06+290.585+1160.88+292.562C1162.69+294.54+1165.77+295.5+1170.12+295.5C1174.17+295.5+1177.18+294.552+1179.16+292.656C1181.13+290.76+1182.12+288.513+1182.12+285.906C1182.12+283.208+1181.2+281.227+1179.28+279.969C1178.08+279.167+1175.69+278.357+1172.16+277.5L1168.91+276.688C1167.48+276.341+1166.42+275.956+1165.69+275.5C1164.43+274.734+1163.78+273.714+1163.78+272.438C1163.78+271.271+1164.26+270.336+1165.22+269.625C1166.18+268.914+1167.58+268.562+1169.44+268.562C1172.23+268.562+1174.21+269.206+1175.34+270.5C1176.04+271.411+1176.41+272.419+1176.5+273.531L1181.16+273.531C1181.19+271.635+1180.6+269.859+1179.38+268.219C1177.42+265.63+1174.26+264.344+1169.84+264.344ZM1142.09+264.406C1139.85+264.406+1137.91+264.937+1136.25+266.031C1135.08+266.76+1134.02+267.794+1133.03+269.125L1133.03+265.25L1128.25+265.25L1128.25+306.062L1133.16+306.062L1133.16+291.125C1134.23+292.456+1135.22+293.391+1136.09+293.938C1137.59+294.904+1139.45+295.375+1141.66+295.375C1144.46+295.375+1146.92+294.513+1149.03+292.781C1152.37+290.047+1154.03+285.474+1154.03+279.094C1154.03+274.372+1152.88+270.762+1150.56+268.219C1148.25+265.676+1145.41+264.406+1142.09+264.406ZM1078.53+264.438C1074.41+264.438+1071.08+265.909+1068.53+268.844C1065.98+271.779+1064.69+275.609+1064.69+280.312C1064.69+285.089+1065.97+288.816+1068.5+291.469C1071.03+294.121+1074.14+295.438+1077.78+295.438C1079.28+295.438+1080.6+295.292+1081.78+295C1083.99+294.49+1085.85+293.49+1087.34+292.031C1088.24+291.193+1089.03+290.134+1089.75+288.812C1090.47+287.491+1090.9+286.294+1091.03+285.219L1086.19+285.219C1085.82+286.513+1085.22+287.641+1084.34+288.625C1082.81+290.32+1080.76+291.156+1078.19+291.156C1075.43+291.156+1073.41+290.264+1072.09+288.469C1070.78+286.673+1070.06+284.284+1069.97+281.312L1091.44+281.312C1091.44+278.359+1091.29+276.224+1091+274.875C1090.67+272.906+1090.02+271.164+1089.03+269.688C1088.01+268.138+1086.51+266.882+1084.56+265.906C1082.61+264.931+1080.61+264.438+1078.53+264.438ZM1109.69+264.438C1105.57+264.438+1102.21+265.909+1099.66+268.844C1097.1+271.779+1095.84+275.609+1095.84+280.312C1095.84+285.089+1097.12+288.816+1099.66+291.469C1102.19+294.121+1105.26+295.438+1108.91+295.438C1110.4+295.438+1111.75+295.292+1112.94+295C1115.14+294.49+1116.97+293.49+1118.47+292.031C1119.36+291.193+1120.19+290.134+1120.91+288.812C1121.63+287.491+1122.06+286.294+1122.19+285.219L1117.34+285.219C1116.98+286.513+1116.34+287.641+1115.47+288.625C1113.94+290.32+1111.88+291.156+1109.31+291.156C1106.56+291.156+1104.53+290.264+1103.22+288.469C1101.91+286.673+1101.22+284.284+1101.12+281.312L1122.59+281.312C1122.59+278.359+1122.45+276.224+1122.16+274.875C1121.83+272.906+1121.17+271.164+1120.19+269.688C1119.17+268.138+1117.67+266.882+1115.72+265.906C1113.77+264.931+1111.77+264.438+1109.69+264.438ZM1262.22+264.438C1258.1+264.438+1254.77+265.909+1252.22+268.844C1249.67+271.779+1248.41+275.609+1248.41+280.312C1248.41+285.089+1249.65+288.816+1252.19+291.469C1254.72+294.121+1257.82+295.438+1261.47+295.438C1262.96+295.438+1264.28+295.292+1265.47+295C1267.67+294.49+1269.54+293.49+1271.03+292.031C1271.92+291.193+1272.72+290.134+1273.44+288.812C1274.16+287.491+1274.59+286.294+1274.72+285.219L1269.88+285.219C1269.51+286.513+1268.91+287.641+1268.03+288.625C1266.5+290.32+1264.45+291.156+1261.88+291.156C1259.12+291.156+1257.09+290.264+1255.78+288.469C1254.47+286.673+1253.75+284.284+1253.66+281.312L1275.12+281.312C1275.12+278.359+1274.98+276.224+1274.69+274.875C1274.36+272.906+1273.7+271.164+1272.72+269.688C1271.7+268.138+1270.23+266.882+1268.28+265.906C1266.33+264.931+1264.3+264.438+1262.22+264.438ZM1294.75+264.438C1292.69+264.438+1290.84+265.013+1289.22+266.125C1288.27+266.781+1287.2+267.81+1286.03+269.25L1286.03+265.094L1281.19+265.094L1281.19+294.406L1286.09+294.406L1286.09+278.875C1286.09+275.102+1286.85+272.471+1288.38+271.031C1289.9+269.591+1291.61+268.875+1293.47+268.875C1295.51+268.875+1296.88+269.57+1297.62+270.938C1298.1+271.849+1298.34+273.294+1298.34+275.281L1298.34+294.406L1303.34+294.406L1303.34+277.344C1303.34+274.318+1304.04+272.169+1305.44+270.875C1306.83+269.581+1308.51+268.938+1310.44+268.938C1311.84+268.938+1313.02+269.302+1314+270.031C1314.98+270.76+1315.47+272.112+1315.47+274.062L1315.47+294.406L1320.59+294.406L1320.59+274.906C1320.59+272.318+1320.2+270.25+1319.44+268.719C1318.02+265.875+1315.34+264.438+1311.41+264.438C1309.57+264.438+1307.88+264.837+1306.41+265.594C1304.93+266.35+1303.66+267.495+1302.56+269.062C1301.91+267.786+1301.18+266.844+1300.38+266.188C1298.95+265.039+1297.08+264.438+1294.75+264.438ZM1141+268.719C1144.39+268.719+1146.72+270.336+1148+273.562C1148.67+275.24+1149+277.229+1149+279.562C1149+283.391+1148.24+286.264+1146.72+288.188C1145.2+290.111+1143.3+291.094+1141+291.094C1137.61+291.094+1135.28+289.557+1134+286.531C1133.33+284.945+1132.97+283.042+1132.97+280.781C1132.97+277.974+1133.33+275.667+1134+273.844C1135.26+270.435+1137.59+268.719+1141+268.719ZM1078.22+268.75C1081.37+268.75+1083.65+269.943+1085+272.312C1085.73+273.589+1086.17+275.273+1086.38+277.406L1070.12+277.406C1070.22+274.891+1071+272.819+1072.53+271.188C1074.06+269.556+1075.96+268.75+1078.22+268.75ZM1109.38+268.75C1112.53+268.75+1114.78+269.943+1116.12+272.312C1116.85+273.589+1117.33+275.273+1117.53+277.406L1101.25+277.406C1101.34+274.891+1102.16+272.819+1103.69+271.188C1105.22+269.556+1107.11+268.75+1109.38+268.75ZM1261.94+268.75C1265.09+268.75+1267.34+269.943+1268.69+272.312C1269.42+273.589+1269.86+275.273+1270.06+277.406L1253.81+277.406C1253.9+274.891+1254.72+272.819+1256.25+271.188C1257.78+269.556+1259.68+268.75+1261.94+268.75ZM1272.25+321.094L1272.25+335.875C1271.14+334.508+1270.16+333.547+1269.28+333C1267.77+332.052+1265.9+331.594+1263.66+331.594C1259.61+331.594+1256.49+333.155+1254.31+336.281C1252.13+339.408+1251.03+343.109+1251.03+347.375C1251.03+351.932+1252.24+355.569+1254.62+358.312C1257.01+361.056+1259.83+362.438+1263.09+362.438C1265.12+362.438+1266.93+362.021+1268.5+361.219C1270.07+360.417+1271.41+359.117+1272.56+357.312L1272.56+361.406L1277+361.406L1277+321.094L1272.25+321.094ZM1038.34+321.219L1038.34+326.812L1043.34+326.812L1043.34+321.219L1038.34+321.219ZM1082.91+323.938L1082.91+332.094L1078.94+332.094L1078.94+336.125L1082.91+336.125L1082.91+355.5C1082.91+357.378+1083.3+358.918+1084.12+360.094C1084.95+361.27+1086.52+361.844+1088.81+361.844C1089.52+361.844+1090.17+361.823+1090.78+361.75C1091.39+361.677+1092+361.57+1092.56+361.406L1092.56+357.5C1092.2+357.536+1091.87+357.585+1091.59+357.594C1091.32+357.603+1091.08+357.594+1090.84+357.594C1089.95+357.594+1089.32+357.482+1088.94+357.281C1088.24+356.935+1087.88+356.271+1087.88+355.25L1087.88+336.125L1092.56+336.125L1092.56+332.094L1087.88+332.094L1087.88+323.938L1082.91+323.938ZM1207.41+323.938L1207.41+332.094L1203.44+332.094L1203.44+336.125L1207.41+336.125L1207.41+355.5C1207.41+357.378+1207.8+358.918+1208.62+360.094C1209.45+361.27+1211.02+361.844+1213.31+361.844C1214.02+361.844+1214.67+361.823+1215.28+361.75C1215.89+361.677+1216.5+361.57+1217.06+361.406L1217.06+357.5C1216.7+357.536+1216.37+357.585+1216.09+357.594C1215.82+357.603+1215.58+357.594+1215.34+357.594C1214.45+357.594+1213.79+357.482+1213.41+357.281C1212.71+356.935+1212.38+356.271+1212.38+355.25L1212.38+336.125L1217.06+336.125L1217.06+332.094L1212.38+332.094L1212.38+323.938L1207.41+323.938ZM1188.47+331.344C1185.1+331.344+1182.43+332.193+1180.44+333.906C1178.44+335.62+1177.44+337.854+1177.44+340.625C1177.44+342.977+1178.48+344.826+1180.59+346.156C1181.78+346.922+1183.63+347.63+1186.12+348.25L1190.03+349.219C1192.13+349.747+1193.54+350.224+1194.25+350.625C1195.36+351.281+1195.91+352.242+1195.91+353.5C1195.91+355.159+1195.23+356.363+1193.84+357.156C1192.46+357.949+1190.85+358.344+1189.03+358.344C1185.97+358.344+1183.8+357.555+1182.56+355.969C1181.89+355.094+1181.49+353.859+1181.34+352.219L1176.62+352.219C1176.75+355.135+1177.72+357.585+1179.53+359.562C1181.35+361.54+1184.42+362.5+1188.78+362.5C1192.83+362.5+1195.83+361.552+1197.81+359.656C1199.79+357.76+1200.78+355.513+1200.78+352.906C1200.78+350.208+1199.82+348.227+1197.91+346.969C1196.7+346.167+1194.35+345.357+1190.81+344.5L1187.56+343.688C1186.14+343.341+1185.04+342.956+1184.31+342.5C1183.05+341.734+1182.44+340.714+1182.44+339.438C1182.44+338.271+1182.92+337.336+1183.88+336.625C1184.83+335.914+1186.23+335.562+1188.09+335.562C1190.88+335.562+1192.84+336.206+1193.97+337.5C1194.66+338.411+1195.07+339.419+1195.16+340.531L1199.81+340.531C1199.85+338.635+1199.25+336.859+1198.03+335.219C1196.08+332.63+1192.88+331.344+1188.47+331.344ZM1065.03+331.438C1063.14+331.438+1061.39+331.815+1059.84+332.562C1058.29+333.31+1056.85+334.536+1055.47+336.25L1055.47+332.094L1050.78+332.094L1050.78+361.406L1055.69+361.406L1055.69+346.062C1055.69+344.148+1055.82+342.655+1056.06+341.625C1056.31+340.595+1056.84+339.622+1057.66+338.656C1058.68+337.453+1059.87+336.651+1061.22+336.25C1061.97+336.013+1062.93+335.875+1064.09+335.875C1066.39+335.875+1067.97+336.802+1068.84+338.625C1069.37+339.719+1069.66+341.151+1069.66+342.938L1069.66+361.406L1074.66+361.406L1074.66+342.594C1074.66+339.641+1074.24+337.398+1073.44+335.812C1071.98+332.914+1069.19+331.438+1065.03+331.438ZM1109.69+331.438C1105.57+331.438+1102.21+332.909+1099.66+335.844C1097.1+338.779+1095.84+342.609+1095.84+347.312C1095.84+352.089+1097.12+355.816+1099.66+358.469C1102.19+361.121+1105.26+362.438+1108.91+362.438C1110.4+362.438+1111.75+362.292+1112.94+362C1115.14+361.49+1116.97+360.49+1118.47+359.031C1119.36+358.193+1120.19+357.134+1120.91+355.812C1121.63+354.491+1122.06+353.294+1122.19+352.219L1117.34+352.219C1116.98+353.513+1116.34+354.641+1115.47+355.625C1113.94+357.32+1111.88+358.156+1109.31+358.156C1106.56+358.156+1104.53+357.264+1103.22+355.469C1101.91+353.673+1101.22+351.284+1101.12+348.312L1122.59+348.312C1122.59+345.359+1122.45+343.224+1122.16+341.875C1121.83+339.906+1121.17+338.164+1120.19+336.688C1119.17+335.138+1117.67+333.882+1115.72+332.906C1113.77+331.931+1111.77+331.438+1109.69+331.438ZM1141.44+331.438C1139.49+331.438+1137.74+332.15+1136.25+333.562C1134.76+334.975+1133.82+336.172+1133.44+337.156L1133.44+332.094L1128.75+332.094L1128.75+361.406L1133.69+361.406L1133.69+344.562C1133.69+342.484+1134.36+340.626+1135.69+339.031C1137.02+337.436+1138.93+336.656+1141.41+336.656C1141.7+336.656+1141.94+336.669+1142.19+336.688C1142.43+336.706+1142.71+336.727+1143+336.781L1143+331.594C1142.47+331.539+1142.09+331.487+1141.88+331.469C1141.66+331.451+1141.53+331.438+1141.44+331.438ZM1159.47+331.438C1155.35+331.438+1152.02+332.909+1149.47+335.844C1146.92+338.779+1145.62+342.609+1145.62+347.312C1145.62+352.089+1146.9+355.816+1149.44+358.469C1151.97+361.121+1155.07+362.438+1158.72+362.438C1160.21+362.438+1161.53+362.292+1162.72+362C1164.92+361.49+1166.79+360.49+1168.28+359.031C1169.17+358.193+1169.97+357.134+1170.69+355.812C1171.41+354.491+1171.84+353.294+1171.97+352.219L1167.12+352.219C1166.76+353.513+1166.16+354.641+1165.28+355.625C1163.75+357.32+1161.7+358.156+1159.12+358.156C1156.37+358.156+1154.34+357.264+1153.03+355.469C1151.72+353.673+1151+351.284+1150.91+348.312L1172.38+348.312C1172.38+345.359+1172.23+343.224+1171.94+341.875C1171.61+339.906+1170.95+338.164+1169.97+336.688C1168.95+335.138+1167.45+333.882+1165.5+332.906C1163.55+331.931+1161.55+331.438+1159.47+331.438ZM1234.19+331.438C1230.07+331.438+1226.71+332.909+1224.16+335.844C1221.6+338.779+1220.34+342.609+1220.34+347.312C1220.34+352.089+1221.59+355.816+1224.12+358.469C1226.66+361.121+1229.76+362.438+1233.41+362.438C1234.9+362.438+1236.25+362.292+1237.44+362C1239.64+361.49+1241.47+360.49+1242.97+359.031C1243.86+358.193+1244.69+357.134+1245.41+355.812C1246.13+354.491+1246.53+353.294+1246.66+352.219L1241.84+352.219C1241.48+353.513+1240.84+354.641+1239.97+355.625C1238.44+357.32+1236.38+358.156+1233.81+358.156C1231.06+358.156+1229.03+357.264+1227.72+355.469C1226.41+353.673+1225.72+351.284+1225.62+348.312L1247.09+348.312C1247.09+345.359+1246.95+343.224+1246.66+341.875C1246.33+339.906+1245.67+338.164+1244.69+336.688C1243.67+335.138+1242.17+333.882+1240.22+332.906C1238.27+331.931+1236.27+331.438+1234.19+331.438ZM1038.34+332.25L1038.34+361.406L1043.34+361.406L1043.34+332.25L1038.34+332.25ZM1109.38+335.75C1112.53+335.75+1114.78+336.943+1116.12+339.312C1116.85+340.589+1117.33+342.273+1117.53+344.406L1101.25+344.406C1101.34+341.891+1102.16+339.819+1103.69+338.188C1105.22+336.556+1107.11+335.75+1109.38+335.75ZM1159.16+335.75C1162.31+335.75+1164.59+336.943+1165.94+339.312C1166.67+340.589+1167.11+342.273+1167.31+344.406L1151.06+344.406C1151.15+341.891+1151.94+339.819+1153.47+338.188C1155+336.556+1156.9+335.75+1159.16+335.75ZM1233.88+335.75C1237.03+335.75+1239.28+336.943+1240.62+339.312C1241.35+340.589+1241.83+342.273+1242.03+344.406L1225.75+344.406C1225.84+341.891+1226.66+339.819+1228.19+338.188C1229.72+336.556+1231.61+335.75+1233.88+335.75ZM1264.59+335.875C1266.82+335.875+1268.67+336.785+1270.19+338.562C1271.7+340.34+1272.47+343.049+1272.47+346.75C1272.47+350.414+1271.72+353.228+1270.25+355.188C1268.78+357.147+1266.9+358.125+1264.62+358.125C1261.69+358.125+1259.58+357.083+1258.25+354.969C1256.92+352.854+1256.25+350.229+1256.25+347.094C1256.25+343.411+1257.02+340.615+1258.56+338.719C1260.1+336.823+1262.11+335.875+1264.59+335.875Z" vectornator:shadowOffset="10.7558" fill="#ffffff" opacity="1" vectornator:shadowAngle="1.83957"/>
<path d="M604.323+269.328C604.323+266.566+606.561+264.328+609.323+264.328C612.084+264.328+614.322+266.566+614.322+269.328C614.322+272.089+612.084+274.328+609.323+274.328C606.561+274.328+604.323+272.089+604.323+269.328Z" fill-rule="evenodd" fill="#ffffff" opacity="1"/>
<path d="M691.155+289.328C691.155+286.566+693.393+284.328+696.155+284.328C698.916+284.328+701.154+286.566+701.154+289.328C701.154+292.089+698.916+294.328+696.155+294.328C693.393+294.328+691.155+292.089+691.155+289.328Z" fill-rule="evenodd" fill="#ffffff" opacity="1"/>
<path d="M775.235+368.893C775.235+366.131+777.473+363.893+780.235+363.893C782.996+363.893+785.234+366.131+785.234+368.893C785.234+371.654+782.996+373.893+780.235+373.893C777.473+373.893+775.235+371.654+775.235+368.893Z" fill-rule="evenodd" fill="#ffffff" opacity="1"/>
<path d="M645+333.869C645+331.107+647.238+328.869+650+328.869C652.761+328.869+654.999+331.107+654.999+333.869C654.999+336.63+652.761+338.869+650+338.869C647.238+338.869+645+336.63+645+333.869Z" fill-rule="evenodd" fill="#ffffff" opacity="1"/>
<path d="M785.234+473.529C785.234+470.767+787.472+468.529+790.234+468.529C792.995+468.529+795.233+470.767+795.233+473.529C795.233+476.29+792.995+478.529+790.234+478.529C787.472+478.529+785.234+476.29+785.234+473.529Z" fill-rule="evenodd" fill="#ffffff" opacity="1"/>
<path d="M574.324+85.8071C574.324+83.0451+576.562+80.8071+579.324+80.8071C582.085+80.8071+584.323+83.0451+584.323+85.8071C584.323+88.5681+582.085+90.8071+579.324+90.8071C576.562+90.8071+574.324+88.5681+574.324+85.8071Z" fill-rule="evenodd" fill="#ffffff" opacity="1"/>
<path d="M120.784+149.262C120.784+146.5+123.022+144.262+125.784+144.262C128.545+144.262+130.783+146.5+130.783+149.262C130.783+152.023+128.545+154.262+125.784+154.262C123.022+154.262+120.784+152.023+120.784+149.262Z" fill-rule="evenodd" fill="#ffffff" opacity="1"/>
<path d="M589.323+192.957C589.323+190.195+591.561+187.957+594.323+187.957C597.083+187.957+599.322+190.195+599.322+192.957C599.322+195.717+597.083+197.957+594.323+197.957C591.561+197.957+589.323+195.717+589.323+192.957Z" fill-rule="evenodd" fill="#ffffff" opacity="1"/>
<path d="M594.324+54.3071C594.324+51.5451+596.562+49.3071+599.324+49.3071C602.085+49.3071+604.323+51.5451+604.323+54.3071C604.323+57.0681+602.085+59.3071+599.324+59.3071C596.562+59.3071+594.324+57.0681+594.324+54.3071Z" fill-rule="evenodd" fill="#ffffff" opacity="1"/>
</g>
</svg>
