<?xml version="1.0" encoding="UTF-8" standalone="no"?> <!-- Created with Vectornator for iOS (http://vectornator.io/) --><!DOCTYPE svg PUBLIC "-//W3C//DTD SVG 1.1//EN" "http://www.w3.org/Graphics/SVG/1.1/DTD/svg11.dtd">
<svg height="100%" style="fill-rule:nonzero;clip-rule:evenodd;stroke-linecap:round;stroke-linejoin:round;" xmlns:xlink="http://www.w3.org/1999/xlink" xmlns="http://www.w3.org/2000/svg" xml:space="preserve" width="100%" xmlns:vectornator="http://vectornator.io" version="1.1" viewBox="0 0 1536 396">
<metadata>
<vectornator:setting key="GuidesVisible" value="1"/>
<vectornator:setting key="SnapToPoints" value="0"/>
<vectornator:setting key="doHistoryDisabled" value="0"/>
<vectornator:setting key="DynamicGuides" value="1"/>
<vectornator:setting key="DisplayWhiteBackground" value="0"/>
<vectornator:setting key="Units" value="Pixels"/>
<vectornator:setting key="TimeLapseWatermarkDisabled" value="0"/>
<vectornator:setting key="OutlineMode" value="0"/>
<vectornator:setting key="DimensionsVisible" value="1"/>
<vectornator:setting key="CMYKEnabledKey" value="0"/>
<vectornator:setting key="IsolateActiveLayer" value="0"/>
<vectornator:setting key="RulersVisible" value="1"/>
<vectornator:setting key="SnapToGuides" value="1"/>
<vectornator:setting key="SnapToGrid" value="0"/>
<vectornator:setting key="SnapToEdges" value="0"/>
<vectornator:setting key="PencilOnly" value="0"/>
</metadata>
<defs>
<linearGradient y1="198" id="LinearGradient" x1="0" y2="198" x2="1536" gradientUnits="userSpaceOnUse" gradientTransform="matrix(1 0 0 1 0 0)">
<stop stop-color="#fcff6f" offset="0"/>
<stop stop-color="#ffac32" offset="1"/>
</linearGradient>
</defs>
<g id="Layer 1" vectornator:layerName="Layer 1">
<path d="M0+0L1536+0L1536+396L0+396L0+0Z" opacity="1" fill="url(#LinearGradient)"/>
<g opacity="1">
<path d="M182.208+102.592C180.416+94.7413+177.088+89.152+172.224+85.824C167.36+82.496+161.003+80.832+153.152+80.832C147.605+80.832+142.827+81.9413+138.816+84.16C134.805+86.3787+131.499+89.3653+128.896+93.12C126.293+96.8747+124.373+101.205+123.136+106.112C121.899+111.019+121.28+116.203+121.28+121.664C121.28+126.784+121.813+131.819+122.88+136.768C123.947+141.717+125.717+146.133+128.192+150.016C130.667+153.899+133.995+157.035+138.176+159.424C142.357+161.813+147.605+163.008+153.92+163.008C157.845+163.008+161.429+162.368+164.672+161.088C167.915+159.808+170.752+158.037+173.184+155.776C175.616+153.515+177.664+150.848+179.328+147.776C180.992+144.704+182.251+141.333+183.104+137.664L192.192+137.664C191.168+142.101+189.675+146.304+187.712+150.272C185.749+154.24+183.168+157.717+179.968+160.704C176.768+163.691+172.885+166.059+168.32+167.808C163.755+169.557+158.4+170.432+152.256+170.432C145.173+170.432+139.115+169.131+134.08+166.528C129.045+163.925+124.928+160.405+121.728+155.968C118.528+151.531+116.203+146.389+114.752+140.544C113.301+134.699+112.576+128.491+112.576+121.92C112.576+113.131+113.664+105.664+115.84+99.52C118.016+93.376+121.024+88.3627+124.864+84.48C128.704+80.5973+133.227+77.7813+138.432+76.032C143.637+74.2827+149.312+73.408+155.456+73.408C160.149+73.408+164.523+74.0267+168.576+75.264C172.629+76.5013+176.213+78.3573+179.328+80.832C182.443+83.3067+185.003+86.3573+187.008+89.984C189.013+93.6107+190.4+97.8133+191.168+102.592L182.208+102.592Z" opacity="1" fill="#ffffff"/>
<path d="M252.992+101.696L260.672+101.696L260.672+168L252.992+168L252.992+158.784C251.968+159.979+250.816+161.216+249.536+162.496C248.256+163.776+246.784+164.949+245.12+166.016C243.456+167.083+241.515+167.979+239.296+168.704C237.077+169.429+234.517+169.792+231.616+169.792C227.179+169.792+223.467+169.173+220.48+167.936C217.493+166.699+215.083+164.971+213.248+162.752C211.413+160.533+210.091+157.952+209.28+155.008C208.469+152.064+208.064+148.843+208.064+145.344L208.064+101.696L215.744+101.696L215.744+145.216C215.744+150.933+217.067+155.307+219.712+158.336C222.357+161.365+226.709+162.88+232.768+162.88C235.925+162.88+238.763+162.261+241.28+161.024C243.797+159.787+245.909+158.059+247.616+155.84C249.323+153.621+250.645+150.976+251.584+147.904C252.523+144.832+252.992+141.461+252.992+137.792L252.992+101.696Z" opacity="1" fill="#ffffff"/>
<path d="M283.712+147.264C284.907+152.981+287.061+157.013+290.176+159.36C293.291+161.707+297.749+162.88+303.552+162.88C306.368+162.88+308.8+162.539+310.848+161.856C312.896+161.173+314.581+160.256+315.904+159.104C317.227+157.952+318.229+156.651+318.912+155.2C319.595+153.749+319.936+152.213+319.936+150.592C319.936+147.349+318.891+144.939+316.8+143.36C314.709+141.781+312.085+140.544+308.928+139.648C305.771+138.752+302.357+137.984+298.688+137.344C295.019+136.704+291.605+135.744+288.448+134.464C285.291+133.184+282.667+131.349+280.576+128.96C278.485+126.571+277.44+123.2+277.44+118.848C277.44+113.301+279.467+108.757+283.52+105.216C287.573+101.675+293.312+99.904+300.736+99.904C307.904+99.904+313.728+101.504+318.208+104.704C322.688+107.904+325.397+113.259+326.336+120.768L318.528+120.768C317.845+115.648+315.904+112.043+312.704+109.952C309.504+107.861+305.472+106.816+300.608+106.816C295.744+106.816+292.032+107.861+289.472+109.952C286.912+112.043+285.632+114.795+285.632+118.208C285.632+121.195+286.677+123.477+288.768+125.056C290.859+126.635+293.483+127.915+296.64+128.896C299.797+129.877+303.211+130.752+306.88+131.52C310.549+132.288+313.963+133.376+317.12+134.784C320.277+136.192+322.901+138.091+324.992+140.48C327.083+142.869+328.128+146.197+328.128+150.464C328.128+153.621+327.445+156.416+326.08+158.848C324.715+161.28+322.837+163.307+320.448+164.928C318.059+166.549+315.221+167.765+311.936+168.576C308.651+169.387+305.045+169.792+301.12+169.792C297.195+169.792+293.717+169.216+290.688+168.064C287.659+166.912+285.077+165.312+282.944+163.264C280.811+161.216+279.147+158.827+277.952+156.096C276.757+153.365+276.075+150.421+275.904+147.264L283.712+147.264Z" opacity="1" fill="#ffffff"/>
<path d="M366.528+168.256C365.589+168.427+364.352+168.725+362.816+169.152C361.28+169.579+359.573+169.792+357.696+169.792C353.856+169.792+350.933+168.832+348.928+166.912C346.923+164.992+345.92+161.557+345.92+156.608L345.92+108.096L336.576+108.096L336.576+101.696L345.92+101.696L345.92+83.264L353.6+83.264L353.6+101.696L366.016+101.696L366.016+108.096L353.6+108.096L353.6+153.536C353.6+155.157+353.643+156.565+353.728+157.76C353.813+158.955+354.069+159.936+354.496+160.704C354.923+161.472+355.584+162.027+356.48+162.368C357.376+162.709+358.635+162.88+360.256+162.88C361.28+162.88+362.325+162.795+363.392+162.624C364.459+162.453+365.504+162.24+366.528+161.984L366.528+168.256Z" opacity="1" fill="#ffffff"/>
<path d="M405.184+169.792C400.917+169.707+396.928+168.939+393.216+167.488C389.504+166.037+386.261+163.861+383.488+160.96C380.715+158.059+378.517+154.432+376.896+150.08C375.275+145.728+374.464+140.651+374.464+134.848C374.464+129.984+375.104+125.44+376.384+121.216C377.664+116.992+379.584+113.301+382.144+110.144C384.704+106.987+387.904+104.491+391.744+102.656C395.584+100.821+400.064+99.904+405.184+99.904C410.389+99.904+414.912+100.821+418.752+102.656C422.592+104.491+425.792+106.965+428.352+110.08C430.912+113.195+432.811+116.885+434.048+121.152C435.285+125.419+435.904+129.984+435.904+134.848C435.904+140.139+435.179+144.917+433.728+149.184C432.277+153.451+430.208+157.12+427.52+160.192C424.832+163.264+421.589+165.632+417.792+167.296C413.995+168.96+409.792+169.792+405.184+169.792ZM427.712+134.848C427.712+130.923+427.285+127.253+426.432+123.84C425.579+120.427+424.256+117.461+422.464+114.944C420.672+112.427+418.368+110.443+415.552+108.992C412.736+107.541+409.28+106.816+405.184+106.816C401.173+106.816+397.739+107.605+394.88+109.184C392.021+110.763+389.696+112.853+387.904+115.456C386.112+118.059+384.789+121.045+383.936+124.416C383.083+127.787+382.656+131.264+382.656+134.848C382.656+138.944+383.147+142.72+384.128+146.176C385.109+149.632+386.539+152.597+388.416+155.072C390.293+157.547+392.64+159.467+395.456+160.832C398.272+162.197+401.515+162.88+405.184+162.88C409.195+162.88+412.629+162.091+415.488+160.512C418.347+158.933+420.672+156.821+422.464+154.176C424.256+151.531+425.579+148.544+426.432+145.216C427.285+141.888+427.712+138.432+427.712+134.848Z" opacity="1" fill="#ffffff"/>
<path d="M456.64+168L448.96+168L448.96+101.696L456.64+101.696L456.64+111.68L456.896+111.68C458.859+107.84+461.675+104.917+465.344+102.912C469.013+100.907+473.024+99.904+477.376+99.904C480.448+99.904+483.051+100.245+485.184+100.928C487.317+101.611+489.131+102.528+490.624+103.68C492.117+104.832+493.355+106.176+494.336+107.712C495.317+109.248+496.149+110.912+496.832+112.704C499.051+108.352+502.016+105.131+505.728+103.04C509.44+100.949+513.685+99.904+518.464+99.904C522.987+99.904+526.592+100.651+529.28+102.144C531.968+103.637+534.037+105.6+535.488+108.032C536.939+110.464+537.899+113.259+538.368+116.416C538.837+119.573+539.072+122.816+539.072+126.144L539.072+168L531.392+168L531.392+122.176C531.392+117.397+530.389+113.643+528.384+110.912C526.379+108.181+522.645+106.816+517.184+106.816C514.368+106.816+511.659+107.435+509.056+108.672C506.453+109.909+504.171+111.808+502.208+114.368C501.355+115.477+500.651+116.779+500.096+118.272C499.541+119.765+499.093+121.323+498.752+122.944C498.411+124.565+498.176+126.187+498.048+127.808C497.92+129.429+497.856+130.923+497.856+132.288L497.856+168L490.176+168L490.176+122.176C490.176+117.397+489.173+113.643+487.168+110.912C485.163+108.181+481.429+106.816+475.968+106.816C473.152+106.816+470.443+107.435+467.84+108.672C465.237+109.909+462.955+111.808+460.992+114.368C460.139+115.477+459.435+116.779+458.88+118.272C458.325+119.765+457.877+121.323+457.536+122.944C457.195+124.565+456.96+126.187+456.832+127.808C456.704+129.429+456.64+130.923+456.64+132.288L456.64+168Z" opacity="1" fill="#ffffff"/>
<path d="M596.928+140.48C597.269+144.576+598.187+148.053+599.68+150.912C601.173+153.771+603.093+156.096+605.44+157.888C607.787+159.68+610.496+160.981+613.568+161.792C616.64+162.603+619.925+163.008+623.424+163.008C627.52+163.008+631.061+162.496+634.048+161.472C637.035+160.448+639.467+159.061+641.344+157.312C643.221+155.563+644.608+153.536+645.504+151.232C646.4+148.928+646.848+146.496+646.848+143.936C646.848+140.352+646.037+137.451+644.416+135.232C642.795+133.013+640.683+131.2+638.08+129.792C635.477+128.384+632.491+127.253+629.12+126.4C625.749+125.547+622.293+124.715+618.752+123.904C615.211+123.093+611.755+122.133+608.384+121.024C605.013+119.915+602.027+118.421+599.424+116.544C596.821+114.667+594.709+112.256+593.088+109.312C591.467+106.368+590.656+102.635+590.656+98.112C590.656+94.9547+591.317+91.8827+592.64+88.896C593.963+85.9093+595.925+83.264+598.528+80.96C601.131+78.656+604.395+76.8213+608.32+75.456C612.245+74.0907+616.768+73.408+621.888+73.408C627.093+73.408+631.637+74.1333+635.52+75.584C639.403+77.0347+642.624+79.0187+645.184+81.536C647.744+84.0533+649.664+86.976+650.944+90.304C652.224+93.632+652.864+97.1733+652.864+100.928L644.544+100.928C644.544+97.4293+643.925+94.4+642.688+91.84C641.451+89.28+639.765+87.1893+637.632+85.568C635.499+83.9467+633.067+82.752+630.336+81.984C627.605+81.216+624.789+80.832+621.888+80.832C617.451+80.832+613.717+81.4507+610.688+82.688C607.659+83.9253+605.248+85.5253+603.456+87.488C601.664+89.4507+600.427+91.6267+599.744+94.016C599.061+96.4053+598.933+98.7947+599.36+101.184C599.872+104.171+601.067+106.56+602.944+108.352C604.821+110.144+607.125+111.616+609.856+112.768C612.587+113.92+615.595+114.859+618.88+115.584C622.165+116.309+625.515+117.077+628.928+117.888C632.341+118.699+635.648+119.659+638.848+120.768C642.048+121.877+644.885+123.371+647.36+125.248C649.835+127.125+651.819+129.536+653.312+132.48C654.805+135.424+655.552+139.115+655.552+143.552C655.552+152.085+652.608+158.699+646.72+163.392C640.832+168.085+632.555+170.432+621.888+170.432C617.109+170.432+612.672+169.813+608.576+168.576C604.48+167.339+600.939+165.461+597.952+162.944C594.965+160.427+592.64+157.312+590.976+153.6C589.312+149.888+588.48+145.515+588.48+140.48L596.928+140.48Z" opacity="1" fill="#ffffff"/>
<path d="M696.768+169.792C692.501+169.707+688.512+168.939+684.8+167.488C681.088+166.037+677.845+163.861+675.072+160.96C672.299+158.059+670.101+154.432+668.48+150.08C666.859+145.728+666.048+140.651+666.048+134.848C666.048+129.984+666.688+125.44+667.968+121.216C669.248+116.992+671.168+113.301+673.728+110.144C676.288+106.987+679.488+104.491+683.328+102.656C687.168+100.821+691.648+99.904+696.768+99.904C701.973+99.904+706.496+100.821+710.336+102.656C714.176+104.491+717.376+106.965+719.936+110.08C722.496+113.195+724.395+116.885+725.632+121.152C726.869+125.419+727.488+129.984+727.488+134.848C727.488+140.139+726.763+144.917+725.312+149.184C723.861+153.451+721.792+157.12+719.104+160.192C716.416+163.264+713.173+165.632+709.376+167.296C705.579+168.96+701.376+169.792+696.768+169.792ZM719.296+134.848C719.296+130.923+718.869+127.253+718.016+123.84C717.163+120.427+715.84+117.461+714.048+114.944C712.256+112.427+709.952+110.443+707.136+108.992C704.32+107.541+700.864+106.816+696.768+106.816C692.757+106.816+689.323+107.605+686.464+109.184C683.605+110.763+681.28+112.853+679.488+115.456C677.696+118.059+676.373+121.045+675.52+124.416C674.667+127.787+674.24+131.264+674.24+134.848C674.24+138.944+674.731+142.72+675.712+146.176C676.693+149.632+678.123+152.597+680+155.072C681.877+157.547+684.224+159.467+687.04+160.832C689.856+162.197+693.099+162.88+696.768+162.88C700.779+162.88+704.213+162.091+707.072+160.512C709.931+158.933+712.256+156.821+714.048+154.176C715.84+151.531+717.163+148.544+718.016+145.216C718.869+141.888+719.296+138.432+719.296+134.848Z" opacity="1" fill="#ffffff"/>
<path d="M734.912+108.096L734.912+101.696L744.768+101.696L744.768+91.2C744.768+85.9093+745.835+81.728+747.968+78.656C750.101+75.584+753.728+74.048+758.848+74.048C760.043+74.048+761.152+74.0907+762.176+74.176C763.2+74.2613+764.224+74.3893+765.248+74.56L765.248+81.6C763.541+81.1733+762.005+80.96+760.64+80.96C758.677+80.96+757.141+81.3227+756.032+82.048C754.923+82.7733+754.112+83.7333+753.6+84.928C753.088+86.1227+752.768+87.4667+752.64+88.96C752.512+90.4533+752.448+91.968+752.448+93.504L752.448+101.696L765.248+101.696L765.248+108.096L752.448+108.096L752.448+168L744.768+168L744.768+108.096L734.912+108.096Z" opacity="1" fill="#ffffff"/>
<path d="M800.448+168.256C799.509+168.427+798.272+168.725+796.736+169.152C795.2+169.579+793.493+169.792+791.616+169.792C787.776+169.792+784.853+168.832+782.848+166.912C780.843+164.992+779.84+161.557+779.84+156.608L779.84+108.096L770.496+108.096L770.496+101.696L779.84+101.696L779.84+83.264L787.52+83.264L787.52+101.696L799.936+101.696L799.936+108.096L787.52+108.096L787.52+153.536C787.52+155.157+787.563+156.565+787.648+157.76C787.733+158.955+787.989+159.936+788.416+160.704C788.843+161.472+789.504+162.027+790.4+162.368C791.296+162.709+792.555+162.88+794.176+162.88C795.2+162.88+796.245+162.795+797.312+162.624C798.379+162.453+799.424+162.24+800.448+161.984L800.448+168.256Z" opacity="1" fill="#ffffff"/>
<path d="M868.8+157.76L886.208+101.696L894.016+101.696L872.512+168L864.32+168L849.856+112.32L849.6+112.32L834.88+168L825.664+168L805.44+101.696L813.12+101.696L830.272+158.272L845.632+101.696L854.208+101.696L868.8+157.76Z" opacity="1" fill="#ffffff"/>
<path d="M948.544+133.184C945.301+134.549+942.016+135.445+938.688+135.872C935.36+136.299+932.032+136.64+928.704+136.896C922.816+137.323+918.229+138.645+914.944+140.864C911.659+143.083+910.016+146.453+910.016+150.976C910.016+153.024+910.421+154.795+911.232+156.288C912.043+157.781+913.109+159.019+914.432+160C915.755+160.981+917.291+161.707+919.04+162.176C920.789+162.645+922.56+162.88+924.352+162.88C927.424+162.88+930.411+162.496+933.312+161.728C936.213+160.96+938.795+159.787+941.056+158.208C943.317+156.629+945.131+154.624+946.496+152.192C947.861+149.76+948.544+146.88+948.544+143.552L948.544+133.184ZM935.616+129.344C937.067+129.173+938.795+128.917+940.8+128.576C942.805+128.235+944.448+127.765+945.728+127.168C947.008+126.571+947.797+125.568+948.096+124.16C948.395+122.752+948.544+121.451+948.544+120.256C948.544+116.331+947.285+113.109+944.768+110.592C942.251+108.075+938.005+106.816+932.032+106.816C929.387+106.816+926.955+107.051+924.736+107.52C922.517+107.989+920.576+108.8+918.912+109.952C917.248+111.104+915.883+112.64+914.816+114.56C913.749+116.48+913.045+118.891+912.704+121.792L904.896+121.792C905.152+117.867+906.048+114.517+907.584+111.744C909.12+108.971+911.104+106.709+913.536+104.96C915.968+103.211+918.784+101.931+921.984+101.12C925.184+100.309+928.576+99.904+932.16+99.904C935.488+99.904+938.624+100.267+941.568+100.992C944.512+101.717+947.072+102.869+949.248+104.448C951.424+106.027+953.131+108.139+954.368+110.784C955.605+113.429+956.224+116.672+956.224+120.512L956.224+156.608C956.224+159.595+956.757+161.493+957.824+162.304C958.891+163.115+961.045+162.923+964.288+161.728L964.288+167.744C963.691+167.915+962.816+168.171+961.664+168.512C960.512+168.853+959.381+169.024+958.272+169.024C957.077+169.024+955.925+168.896+954.816+168.64C953.536+168.469+952.512+168.064+951.744+167.424C950.976+166.784+950.357+166.016+949.888+165.12C949.419+164.224+949.099+163.243+948.928+162.176C948.757+161.109+948.672+159.979+948.672+158.784C945.429+162.368+941.717+165.099+937.536+166.976C933.355+168.853+928.832+169.792+923.968+169.792C921.067+169.792+918.272+169.408+915.584+168.64C912.896+167.872+910.528+166.677+908.48+165.056C906.432+163.435+904.811+161.451+903.616+159.104C902.421+156.757+901.824+153.963+901.824+150.72C901.824+139.456+909.547+132.8+924.992+130.752L935.616+129.344Z" opacity="1" fill="#ffffff"/>
<path d="M984.384+168L976.704+168L976.704+101.696L984.384+101.696L984.384+114.112L984.64+114.112C986.773+108.821+989.525+105.131+992.896+103.04C996.267+100.949+1000.73+99.904+1006.27+99.904L1006.27+108.224C1001.92+108.139+998.336+108.821+995.52+110.272C992.704+111.723+990.464+113.685+988.8+116.16C987.136+118.635+985.984+121.557+985.344+124.928C984.704+128.299+984.384+131.819+984.384+135.488L984.384+168Z" opacity="1" fill="#ffffff"/>
<path d="M1066.94+130.24C1066.94+126.997+1066.5+123.947+1065.6+121.088C1064.7+118.229+1063.38+115.755+1061.63+113.664C1059.88+111.573+1057.69+109.909+1055.04+108.672C1052.39+107.435+1049.37+106.816+1045.95+106.816C1042.54+106.816+1039.53+107.456+1036.93+108.736C1034.33+110.016+1032.11+111.723+1030.27+113.856C1028.44+115.989+1026.97+118.464+1025.86+121.28C1024.75+124.096+1024.02+127.083+1023.68+130.24L1066.94+130.24ZM1023.68+136.64C1023.68+140.224+1024.15+143.616+1025.09+146.816C1026.03+150.016+1027.41+152.789+1029.25+155.136C1031.08+157.483+1033.41+159.36+1036.22+160.768C1039.04+162.176+1042.28+162.88+1045.95+162.88C1050.99+162.88+1055.3+161.557+1058.88+158.912C1062.46+156.267+1064.85+152.512+1066.05+147.648L1074.62+147.648C1073.69+150.805+1072.45+153.728+1070.91+156.416C1069.38+159.104+1067.46+161.451+1065.15+163.456C1062.85+165.461+1060.12+167.019+1056.96+168.128C1053.8+169.237+1050.13+169.792+1045.95+169.792C1040.66+169.792+1036.1+168.896+1032.26+167.104C1028.42+165.312+1025.26+162.859+1022.78+159.744C1020.31+156.629+1018.47+152.96+1017.28+148.736C1016.09+144.512+1015.49+139.968+1015.49+135.104C1015.49+130.24+1016.19+125.675+1017.6+121.408C1019.01+117.141+1021.01+113.408+1023.62+110.208C1026.22+107.008+1029.4+104.491+1033.15+102.656C1036.91+100.821+1041.17+99.904+1045.95+99.904C1055.08+99.904+1062.25+103.04+1067.46+109.312C1072.66+115.584+1075.22+124.693+1075.14+136.64L1023.68+136.64Z" opacity="1" fill="#ffffff"/>
<path d="M1129.92+168L1129.92+75.84L1138.62+75.84L1138.62+168L1129.92+168Z" opacity="1" fill="#ffffff"/>
<path d="M1208.26+122.56C1206.89+117.611+1204.54+113.749+1201.22+110.976C1197.89+108.203+1193.66+106.816+1188.54+106.816C1184.62+106.816+1181.25+107.627+1178.43+109.248C1175.62+110.869+1173.31+113.024+1171.52+115.712C1169.73+118.4+1168.41+121.429+1167.55+124.8C1166.7+128.171+1166.27+131.563+1166.27+134.976C1166.27+138.475+1166.68+141.888+1167.49+145.216C1168.3+148.544+1169.6+151.531+1171.39+154.176C1173.18+156.821+1175.49+158.933+1178.3+160.512C1181.12+162.091+1184.53+162.88+1188.54+162.88C1194.26+162.88+1198.85+161.301+1202.3+158.144C1205.76+154.987+1207.96+150.635+1208.9+145.088L1217.09+145.088C1216.41+148.757+1215.32+152.107+1213.82+155.136C1212.33+158.165+1210.41+160.768+1208.06+162.944C1205.72+165.12+1202.92+166.805+1199.68+168C1196.44+169.195+1192.73+169.792+1188.54+169.792C1183.25+169.792+1178.69+168.896+1174.85+167.104C1171.01+165.312+1167.85+162.859+1165.38+159.744C1162.9+156.629+1161.07+152.939+1159.87+148.672C1158.68+144.405+1158.08+139.84+1158.08+134.976C1158.08+130.368+1158.74+125.952+1160.06+121.728C1161.39+117.504+1163.33+113.771+1165.89+110.528C1168.45+107.285+1171.63+104.704+1175.42+102.784C1179.22+100.864+1183.59+99.904+1188.54+99.904C1196.22+99.904+1202.43+101.739+1207.17+105.408C1211.9+109.077+1214.87+114.795+1216.06+122.56L1208.26+122.56Z" opacity="1" fill="#ffffff"/>
<path d="M1258.82+169.792C1254.55+169.707+1250.56+168.939+1246.85+167.488C1243.14+166.037+1239.89+163.861+1237.12+160.96C1234.35+158.059+1232.15+154.432+1230.53+150.08C1228.91+145.728+1228.1+140.651+1228.1+134.848C1228.1+129.984+1228.74+125.44+1230.02+121.216C1231.3+116.992+1233.22+113.301+1235.78+110.144C1238.34+106.987+1241.54+104.491+1245.38+102.656C1249.22+100.821+1253.7+99.904+1258.82+99.904C1264.02+99.904+1268.54+100.821+1272.38+102.656C1276.22+104.491+1279.42+106.965+1281.98+110.08C1284.54+113.195+1286.44+116.885+1287.68+121.152C1288.92+125.419+1289.54+129.984+1289.54+134.848C1289.54+140.139+1288.81+144.917+1287.36+149.184C1285.91+153.451+1283.84+157.12+1281.15+160.192C1278.46+163.264+1275.22+165.632+1271.42+167.296C1267.63+168.96+1263.42+169.792+1258.82+169.792ZM1281.34+134.848C1281.34+130.923+1280.92+127.253+1280.06+123.84C1279.21+120.427+1277.89+117.461+1276.1+114.944C1274.3+112.427+1272+110.443+1269.18+108.992C1266.37+107.541+1262.91+106.816+1258.82+106.816C1254.81+106.816+1251.37+107.605+1248.51+109.184C1245.65+110.763+1243.33+112.853+1241.54+115.456C1239.74+118.059+1238.42+121.045+1237.57+124.416C1236.71+127.787+1236.29+131.264+1236.29+134.848C1236.29+138.944+1236.78+142.72+1237.76+146.176C1238.74+149.632+1240.17+152.597+1242.05+155.072C1243.93+157.547+1246.27+159.467+1249.09+160.832C1251.9+162.197+1255.15+162.88+1258.82+162.88C1262.83+162.88+1266.26+162.091+1269.12+160.512C1271.98+158.933+1274.3+156.821+1276.1+154.176C1277.89+151.531+1279.21+148.544+1280.06+145.216C1280.92+141.888+1281.34+138.432+1281.34+134.848Z" opacity="1" fill="#ffffff"/>
<path d="M1311.3+168L1303.62+168L1303.62+101.696L1311.3+101.696L1311.3+110.912C1314.37+107.669+1317.55+105.024+1320.83+102.976C1324.12+100.928+1328.06+99.904+1332.67+99.904C1336.77+99.904+1340.57+100.608+1344.06+102.016C1347.56+103.424+1350.51+105.877+1352.9+109.376C1354.52+111.765+1355.48+114.219+1355.78+116.736C1356.07+119.253+1356.22+121.877+1356.22+124.608L1356.22+168L1348.54+168L1348.54+124.736C1348.54+118.763+1347.22+114.283+1344.58+111.296C1341.93+108.309+1337.54+106.816+1331.39+106.816C1329+106.816+1326.83+107.179+1324.86+107.904C1322.9+108.629+1321.13+109.589+1319.55+110.784C1317.97+111.979+1316.63+113.344+1315.52+114.88C1314.41+116.416+1313.56+118.037+1312.96+119.744C1312.19+121.877+1311.72+123.925+1311.55+125.888C1311.38+127.851+1311.3+129.984+1311.3+132.288L1311.3+168Z" opacity="1" fill="#ffffff"/>
<path d="M1379.26+147.264C1380.46+152.981+1382.61+157.013+1385.73+159.36C1388.84+161.707+1393.3+162.88+1399.1+162.88C1401.92+162.88+1404.35+162.539+1406.4+161.856C1408.45+161.173+1410.13+160.256+1411.46+159.104C1412.78+157.952+1413.78+156.651+1414.46+155.2C1415.15+153.749+1415.49+152.213+1415.49+150.592C1415.49+147.349+1414.44+144.939+1412.35+143.36C1410.26+141.781+1407.64+140.544+1404.48+139.648C1401.32+138.752+1397.91+137.984+1394.24+137.344C1390.57+136.704+1387.16+135.744+1384+134.464C1380.84+133.184+1378.22+131.349+1376.13+128.96C1374.04+126.571+1372.99+123.2+1372.99+118.848C1372.99+113.301+1375.02+108.757+1379.07+105.216C1383.13+101.675+1388.86+99.904+1396.29+99.904C1403.46+99.904+1409.28+101.504+1413.76+104.704C1418.24+107.904+1420.95+113.259+1421.89+120.768L1414.08+120.768C1413.4+115.648+1411.46+112.043+1408.26+109.952C1405.06+107.861+1401.02+106.816+1396.16+106.816C1391.3+106.816+1387.58+107.861+1385.02+109.952C1382.46+112.043+1381.18+114.795+1381.18+118.208C1381.18+121.195+1382.23+123.477+1384.32+125.056C1386.41+126.635+1389.03+127.915+1392.19+128.896C1395.35+129.877+1398.76+130.752+1402.43+131.52C1406.1+132.288+1409.51+133.376+1412.67+134.784C1415.83+136.192+1418.45+138.091+1420.54+140.48C1422.63+142.869+1423.68+146.197+1423.68+150.464C1423.68+153.621+1423+156.416+1421.63+158.848C1420.27+161.28+1418.39+163.307+1416+164.928C1413.61+166.549+1410.77+167.765+1407.49+168.576C1404.2+169.387+1400.6+169.792+1396.67+169.792C1392.75+169.792+1389.27+169.216+1386.24+168.064C1383.21+166.912+1380.63+165.312+1378.5+163.264C1376.36+161.216+1374.7+158.827+1373.5+156.096C1372.31+153.365+1371.63+150.421+1371.46+147.264L1379.26+147.264Z" opacity="1" fill="#ffffff"/>
</g>
<g opacity="1">
<path d="M407.75+271.7L425.05+271.7C428.783+271.7+432.033+271.533+434.8+271.2C437.567+270.867+439.85+270.183+441.65+269.15C443.45+268.117+444.8+266.65+445.7+264.75C446.6+262.85+447.05+260.333+447.05+257.2C447.05+254.2+446.55+251.783+445.55+249.95C444.55+248.117+443.117+246.7+441.25+245.7C439.383+244.7+437.15+244.017+434.55+243.65C431.95+243.283+429.05+243.1+425.85+243.1L407.75+243.1L407.75+271.7ZM407.75+237.3L424.95+237.3C428.483+237.3+431.45+237+433.85+236.4C436.25+235.8+438.183+234.917+439.65+233.75C441.117+232.583+442.167+231.15+442.8+229.45C443.433+227.75+443.75+225.8+443.75+223.6C443.75+221.333+443.383+219.417+442.65+217.85C441.917+216.283+440.75+215.017+439.15+214.05C437.55+213.083+435.467+212.383+432.9+211.95C430.333+211.517+427.183+211.3+423.45+211.3L407.75+211.3L407.75+237.3ZM400.95+277.5L400.95+205.5L426.95+205.5C431.15+205.5+434.75+205.933+437.75+206.8C440.75+207.667+443.2+208.9+445.1+210.5C447+212.1+448.383+214.017+449.25+216.25C450.117+218.483+450.55+220.933+450.55+223.6C450.55+226.133+450.217+228.317+449.55+230.15C448.883+231.983+448.017+233.517+446.95+234.75C445.883+235.983+444.667+236.95+443.3+237.65C441.933+238.35+440.517+238.833+439.05+239.1L439.05+239.3C444.05+240.033+447.767+242+450.2+245.2C452.633+248.4+453.85+252.4+453.85+257.2C453.85+260.933+453.267+264.1+452.1+266.7C450.933+269.3+449.317+271.4+447.25+273C445.183+274.6+442.7+275.75+439.8+276.45C436.9+277.15+433.75+277.5+430.35+277.5L400.95+277.5Z" opacity="1" fill="#ffffff"/>
<path d="M466.35+291.6C467.15+291.733+467.967+291.867+468.8+292C469.633+292.133+470.483+292.2+471.35+292.2C473.017+292.2+474.383+291.667+475.45+290.6C476.517+289.533+477.4+288.25+478.1+286.75C478.8+285.25+479.383+283.683+479.85+282.05C480.317+280.417+480.85+279.033+481.45+277.9L461.35+225.7L468.05+225.7L484.65+270.2L501.25+225.7L507.75+225.7L488.45+276.8C487.25+280.067+486.1+283+485+285.6C483.9+288.2+482.733+290.417+481.5+292.25C480.267+294.083+478.9+295.483+477.4+296.45C475.9+297.417+474.117+297.9+472.05+297.9C470.983+297.9+469.967+297.833+469+297.7C468.033+297.567+467.15+297.4+466.35+297.2L466.35+291.6Z" opacity="1" fill="#ffffff"/>
<path d="M552.25+214.7L552.05+214.7L552.05+277.5L545.25+277.5L545.25+205.5L552.95+205.5L594.55+268.4L594.75+268.4L594.75+205.5L601.55+205.5L601.55+277.5L593.65+277.5L552.25+214.7Z" opacity="1" fill="#ffffff"/>
<path d="M617.65+277.5L617.65+225.7L623.65+225.7L623.65+277.5L617.65+277.5ZM617.35+214.4L617.35+205.5L623.95+205.5L623.95+214.4L617.35+214.4Z" opacity="1" fill="#ffffff"/>
<path d="M644.95+277.5L638.95+277.5L638.95+225.7L644.95+225.7L644.95+232.9C647.35+230.367+649.833+228.3+652.4+226.7C654.967+225.1+658.05+224.3+661.65+224.3C664.85+224.3+667.817+224.85+670.55+225.95C673.283+227.05+675.583+228.967+677.45+231.7C678.717+233.567+679.467+235.483+679.7+237.45C679.933+239.417+680.05+241.467+680.05+243.6L680.05+277.5L674.05+277.5L674.05+243.7C674.05+239.033+673.017+235.533+670.95+233.2C668.883+230.867+665.45+229.7+660.65+229.7C658.783+229.7+657.083+229.983+655.55+230.55C654.017+231.117+652.633+231.867+651.4+232.8C650.167+233.733+649.117+234.8+648.25+236C647.383+237.2+646.717+238.467+646.25+239.8C645.65+241.467+645.283+243.067+645.15+244.6C645.017+246.133+644.95+247.8+644.95+249.6L644.95+277.5Z" opacity="1" fill="#ffffff"/>
<path d="M702.15+225.7L702.15+284.4C702.15+286.6+702.05+288.533+701.85+290.2C701.65+291.867+701.2+293.283+700.5+294.45C699.8+295.617+698.767+296.483+697.4+297.05C696.033+297.617+694.15+297.9+691.75+297.9C690.283+297.9+688.983+297.767+687.85+297.5L687.85+292.2C689.583+292.4+690.983+292.417+692.05+292.25C693.117+292.083+693.95+291.7+694.55+291.1C695.15+290.5+695.567+289.7+695.8+288.7C696.033+287.7+696.15+286.533+696.15+285.2L696.15+225.7L702.15+225.7ZM702.45+214.4L695.85+214.4L695.85+205.5L702.45+205.5L702.45+214.4Z" opacity="1" fill="#ffffff"/>
<path d="M750.65+250.3C748.117+251.367+745.55+252.067+742.95+252.4C740.35+252.733+737.75+253+735.15+253.2C730.55+253.533+726.967+254.567+724.4+256.3C721.833+258.033+720.55+260.667+720.55+264.2C720.55+265.8+720.867+267.183+721.5+268.35C722.133+269.517+722.967+270.483+724+271.25C725.033+272.017+726.233+272.583+727.6+272.95C728.967+273.317+730.35+273.5+731.75+273.5C734.15+273.5+736.483+273.2+738.75+272.6C741.017+272+743.033+271.083+744.8+269.85C746.567+268.617+747.983+267.05+749.05+265.15C750.117+263.25+750.65+261+750.65+258.4L750.65+250.3ZM740.55+247.3C741.683+247.167+743.033+246.967+744.6+246.7C746.167+246.433+747.45+246.067+748.45+245.6C749.45+245.133+750.067+244.35+750.3+243.25C750.533+242.15+750.65+241.133+750.65+240.2C750.65+237.133+749.667+234.617+747.7+232.65C745.733+230.683+742.417+229.7+737.75+229.7C735.683+229.7+733.783+229.883+732.05+230.25C730.317+230.617+728.8+231.25+727.5+232.15C726.2+233.05+725.133+234.25+724.3+235.75C723.467+237.25+722.917+239.133+722.65+241.4L716.55+241.4C716.75+238.333+717.45+235.717+718.65+233.55C719.85+231.383+721.4+229.617+723.3+228.25C725.2+226.883+727.4+225.883+729.9+225.25C732.4+224.617+735.05+224.3+737.85+224.3C740.45+224.3+742.9+224.583+745.2+225.15C747.5+225.717+749.5+226.617+751.2+227.85C752.9+229.083+754.233+230.733+755.2+232.8C756.167+234.867+756.65+237.4+756.65+240.4L756.65+268.6C756.65+270.933+757.067+272.417+757.9+273.05C758.733+273.683+760.417+273.533+762.95+272.6L762.95+277.3C762.483+277.433+761.8+277.633+760.9+277.9C760+278.167+759.117+278.3+758.25+278.3C757.317+278.3+756.417+278.2+755.55+278C754.55+277.867+753.75+277.55+753.15+277.05C752.55+276.55+752.067+275.95+751.7+275.25C751.333+274.55+751.083+273.783+750.95+272.95C750.817+272.117+750.75+271.233+750.75+270.3C748.217+273.1+745.317+275.233+742.05+276.7C738.783+278.167+735.25+278.9+731.45+278.9C729.183+278.9+727+278.6+724.9+278C722.8+277.4+720.95+276.467+719.35+275.2C717.75+273.933+716.483+272.383+715.55+270.55C714.617+268.717+714.15+266.533+714.15+264C714.15+255.2+720.183+250+732.25+248.4L740.55+247.3Z" opacity="1" fill="#ffffff"/>
<path d="M824.35+226.4C822.95+220.267+820.35+215.9+816.55+213.3C812.75+210.7+807.783+209.4+801.65+209.4C797.317+209.4+793.583+210.267+790.45+212C787.317+213.733+784.733+216.067+782.7+219C780.667+221.933+779.167+225.317+778.2+229.15C777.233+232.983+776.75+237.033+776.75+241.3C776.75+245.3+777.167+249.233+778+253.1C778.833+256.967+780.217+260.417+782.15+263.45C784.083+266.483+786.683+268.933+789.95+270.8C793.217+272.667+797.317+273.6+802.25+273.6C805.317+273.6+808.117+273.1+810.65+272.1C813.183+271.1+815.4+269.717+817.3+267.95C819.2+266.183+820.8+264.1+822.1+261.7C823.4+259.3+824.383+256.667+825.05+253.8L832.15+253.8C831.35+257.267+830.183+260.55+828.65+263.65C827.117+266.75+825.1+269.467+822.6+271.8C820.1+274.133+817.067+275.983+813.5+277.35C809.933+278.717+805.75+279.4+800.95+279.4C795.417+279.4+790.683+278.383+786.75+276.35C782.817+274.317+779.6+271.567+777.1+268.1C774.6+264.633+772.783+260.617+771.65+256.05C770.517+251.483+769.95+246.633+769.95+241.5C769.95+234.633+770.8+228.8+772.5+224C774.2+219.2+776.55+215.283+779.55+212.25C782.55+209.217+786.083+207.017+790.15+205.65C794.217+204.283+798.65+203.6+803.45+203.6C807.117+203.6+810.533+204.083+813.7+205.05C816.867+206.017+819.667+207.467+822.1+209.4C824.533+211.333+826.533+213.717+828.1+216.55C829.667+219.383+830.75+222.667+831.35+226.4L824.35+226.4Z" opacity="1" fill="#ffffff"/>
<path d="M844.55+277.5L844.55+205.5L850.55+205.5L850.55+232.9C852.95+230.367+855.433+228.3+858+226.7C860.567+225.1+863.65+224.3+867.25+224.3C870.45+224.3+873.417+224.85+876.15+225.95C878.883+227.05+881.183+228.967+883.05+231.7C884.317+233.567+885.067+235.483+885.3+237.45C885.533+239.417+885.65+241.467+885.65+243.6L885.65+277.5L879.65+277.5L879.65+243.7C879.65+239.033+878.617+235.533+876.55+233.2C874.483+230.867+871.05+229.7+866.25+229.7C864.383+229.7+862.683+229.983+861.15+230.55C859.617+231.117+858.233+231.867+857+232.8C855.767+233.733+854.717+234.8+853.85+236C852.983+237.2+852.317+238.467+851.85+239.8C851.25+241.467+850.883+243.067+850.75+244.6C850.617+246.133+850.55+247.8+850.55+249.6L850.55+277.5L844.55+277.5Z" opacity="1" fill="#ffffff"/>
<path d="M937.65+248C937.65+245.467+937.3+243.083+936.6+240.85C935.9+238.617+934.867+236.683+933.5+235.05C932.133+233.417+930.417+232.117+928.35+231.15C926.283+230.183+923.917+229.7+921.25+229.7C918.583+229.7+916.233+230.2+914.2+231.2C912.167+232.2+910.433+233.533+909+235.2C907.567+236.867+906.417+238.8+905.55+241C904.683+243.2+904.117+245.533+903.85+248L937.65+248ZM903.85+253C903.85+255.8+904.217+258.45+904.95+260.95C905.683+263.45+906.767+265.617+908.2+267.45C909.633+269.283+911.45+270.75+913.65+271.85C915.85+272.95+918.383+273.5+921.25+273.5C925.183+273.5+928.55+272.467+931.35+270.4C934.15+268.333+936.017+265.4+936.95+261.6L943.65+261.6C942.917+264.067+941.95+266.35+940.75+268.45C939.55+270.55+938.05+272.383+936.25+273.95C934.45+275.517+932.317+276.733+929.85+277.6C927.383+278.467+924.517+278.9+921.25+278.9C917.117+278.9+913.55+278.2+910.55+276.8C907.55+275.4+905.083+273.483+903.15+271.05C901.217+268.617+899.783+265.75+898.85+262.45C897.917+259.15+897.45+255.6+897.45+251.8C897.45+248+898+244.433+899.1+241.1C900.2+237.767+901.767+234.85+903.8+232.35C905.833+229.85+908.317+227.883+911.25+226.45C914.183+225.017+917.517+224.3+921.25+224.3C928.383+224.3+933.983+226.75+938.05+231.65C942.117+236.55+944.117+243.667+944.05+253L903.85+253Z" opacity="1" fill="#ffffff"/>
<path d="M993.25+248C993.25+245.467+992.9+243.083+992.2+240.85C991.5+238.617+990.467+236.683+989.1+235.05C987.733+233.417+986.017+232.117+983.95+231.15C981.883+230.183+979.517+229.7+976.85+229.7C974.183+229.7+971.833+230.2+969.8+231.2C967.767+232.2+966.033+233.533+964.6+235.2C963.167+236.867+962.017+238.8+961.15+241C960.283+243.2+959.717+245.533+959.45+248L993.25+248ZM959.45+253C959.45+255.8+959.817+258.45+960.55+260.95C961.283+263.45+962.367+265.617+963.8+267.45C965.233+269.283+967.05+270.75+969.25+271.85C971.45+272.95+973.983+273.5+976.85+273.5C980.783+273.5+984.15+272.467+986.95+270.4C989.75+268.333+991.617+265.4+992.55+261.6L999.25+261.6C998.517+264.067+997.55+266.35+996.35+268.45C995.15+270.55+993.65+272.383+991.85+273.95C990.05+275.517+987.917+276.733+985.45+277.6C982.983+278.467+980.117+278.9+976.85+278.9C972.717+278.9+969.15+278.2+966.15+276.8C963.15+275.4+960.683+273.483+958.75+271.05C956.817+268.617+955.383+265.75+954.45+262.45C953.517+259.15+953.05+255.6+953.05+251.8C953.05+248+953.6+244.433+954.7+241.1C955.8+237.767+957.367+234.85+959.4+232.35C961.433+229.85+963.917+227.883+966.85+226.45C969.783+225.017+973.117+224.3+976.85+224.3C983.983+224.3+989.583+226.75+993.65+231.65C997.717+236.55+999.717+243.667+999.65+253L959.45+253Z" opacity="1" fill="#ffffff"/>
<path d="M1029.55+277.7C1028.82+277.833+1027.85+278.067+1026.65+278.4C1025.45+278.733+1024.12+278.9+1022.65+278.9C1019.65+278.9+1017.37+278.15+1015.8+276.65C1014.23+275.15+1013.45+272.467+1013.45+268.6L1013.45+230.7L1006.15+230.7L1006.15+225.7L1013.45+225.7L1013.45+211.3L1019.45+211.3L1019.45+225.7L1029.15+225.7L1029.15+230.7L1019.45+230.7L1019.45+266.2C1019.45+267.467+1019.48+268.567+1019.55+269.5C1019.62+270.433+1019.82+271.2+1020.15+271.8C1020.48+272.4+1021+272.833+1021.7+273.1C1022.4+273.367+1023.38+273.5+1024.65+273.5C1025.45+273.5+1026.27+273.433+1027.1+273.3C1027.93+273.167+1028.75+273+1029.55+272.8L1029.55+277.7Z" opacity="1" fill="#ffffff"/>
<path d="M1073.05+250.3C1070.52+251.367+1067.95+252.067+1065.35+252.4C1062.75+252.733+1060.15+253+1057.55+253.2C1052.95+253.533+1049.37+254.567+1046.8+256.3C1044.23+258.033+1042.95+260.667+1042.95+264.2C1042.95+265.8+1043.27+267.183+1043.9+268.35C1044.53+269.517+1045.37+270.483+1046.4+271.25C1047.43+272.017+1048.63+272.583+1050+272.95C1051.37+273.317+1052.75+273.5+1054.15+273.5C1056.55+273.5+1058.88+273.2+1061.15+272.6C1063.42+272+1065.43+271.083+1067.2+269.85C1068.97+268.617+1070.38+267.05+1071.45+265.15C1072.52+263.25+1073.05+261+1073.05+258.4L1073.05+250.3ZM1062.95+247.3C1064.08+247.167+1065.43+246.967+1067+246.7C1068.57+246.433+1069.85+246.067+1070.85+245.6C1071.85+245.133+1072.47+244.35+1072.7+243.25C1072.93+242.15+1073.05+241.133+1073.05+240.2C1073.05+237.133+1072.07+234.617+1070.1+232.65C1068.13+230.683+1064.82+229.7+1060.15+229.7C1058.08+229.7+1056.18+229.883+1054.45+230.25C1052.72+230.617+1051.2+231.25+1049.9+232.15C1048.6+233.05+1047.53+234.25+1046.7+235.75C1045.87+237.25+1045.32+239.133+1045.05+241.4L1038.95+241.4C1039.15+238.333+1039.85+235.717+1041.05+233.55C1042.25+231.383+1043.8+229.617+1045.7+228.25C1047.6+226.883+1049.8+225.883+1052.3+225.25C1054.8+224.617+1057.45+224.3+1060.25+224.3C1062.85+224.3+1065.3+224.583+1067.6+225.15C1069.9+225.717+1071.9+226.617+1073.6+227.85C1075.3+229.083+1076.63+230.733+1077.6+232.8C1078.57+234.867+1079.05+237.4+1079.05+240.4L1079.05+268.6C1079.05+270.933+1079.47+272.417+1080.3+273.05C1081.13+273.683+1082.82+273.533+1085.35+272.6L1085.35+277.3C1084.88+277.433+1084.2+277.633+1083.3+277.9C1082.4+278.167+1081.52+278.3+1080.65+278.3C1079.72+278.3+1078.82+278.2+1077.95+278C1076.95+277.867+1076.15+277.55+1075.55+277.05C1074.95+276.55+1074.47+275.95+1074.1+275.25C1073.73+274.55+1073.48+273.783+1073.35+272.95C1073.22+272.117+1073.15+271.233+1073.15+270.3C1070.62+273.1+1067.72+275.233+1064.45+276.7C1061.18+278.167+1057.65+278.9+1053.85+278.9C1051.58+278.9+1049.4+278.6+1047.3+278C1045.2+277.4+1043.35+276.467+1041.75+275.2C1040.15+273.933+1038.88+272.383+1037.95+270.55C1037.02+268.717+1036.55+266.533+1036.55+264C1036.55+255.2+1042.58+250+1054.65+248.4L1062.95+247.3Z" opacity="1" fill="#ffffff"/>
<path d="M1094.75+277.5L1094.75+205.5L1100.75+205.5L1100.75+232.9C1103.15+230.367+1105.63+228.3+1108.2+226.7C1110.77+225.1+1113.85+224.3+1117.45+224.3C1120.65+224.3+1123.62+224.85+1126.35+225.95C1129.08+227.05+1131.38+228.967+1133.25+231.7C1134.52+233.567+1135.27+235.483+1135.5+237.45C1135.73+239.417+1135.85+241.467+1135.85+243.6L1135.85+277.5L1129.85+277.5L1129.85+243.7C1129.85+239.033+1128.82+235.533+1126.75+233.2C1124.68+230.867+1121.25+229.7+1116.45+229.7C1114.58+229.7+1112.88+229.983+1111.35+230.55C1109.82+231.117+1108.43+231.867+1107.2+232.8C1105.97+233.733+1104.92+234.8+1104.05+236C1103.18+237.2+1102.52+238.467+1102.05+239.8C1101.45+241.467+1101.08+243.067+1100.95+244.6C1100.82+246.133+1100.75+247.8+1100.75+249.6L1100.75+277.5L1094.75+277.5Z" opacity="1" fill="#ffffff"/>
</g>
</g>
</svg>
